<svg width="126" height="29" viewBox="0 0 126 29" fill="none" xmlns="http://www.w3.org/2000/svg">
<g clip-path="url(#clip0_4711_59080)">
<path d="M44.054 20.8877L41.4231 22.4072H31.6934V6.53123H41.4231L44.054 8.05079V20.8877ZM34.8686 9.25283V19.6856H40.8788V9.25283H34.8686ZM58.1814 21.0011L55.5505 22.5206H50.7197L48.0888 21.0011V12.4734L50.7197 10.9538H55.5505L58.1814 12.4734V21.0011ZM51.196 13.6074V19.8671H55.0743V13.6074H51.196ZM65.0939 13.7208V19.7537H70.7186V22.4072H64.6176L61.9868 20.8877V12.5868L64.6176 11.0672H70.7186V13.7208H65.0939ZM73.1613 13.7208V11.0672H75.2479V9.16211L78.3551 7.37039V11.0672H80.8499V13.7208H78.3551V19.7537H80.8499V22.4072H77.8788L75.2479 20.8877V13.7208H73.1613ZM87.3084 22.4072H84.2012V5.85083H87.3084V11.8837L88.9187 10.9538H91.8898L94.5206 12.4734V22.4072H91.4135V13.6074H87.3084V22.4072ZM105.351 13.7208H101.45V22.4072H98.3428V11.0672H100.906L101.45 11.9971L103.06 11.0672H105.351V13.7208ZM108.033 21.0011V11.0672H111.14V19.8671H115.018V11.0672H118.125V22.5206H115.562L115.018 21.5907L113.408 22.5206H110.663L108.033 21.0011Z" fill="#D8D8D8"/>
<rect x="5.67188" y="3.54395" width="18.4275" height="21.2625" rx="1.4175" fill="#262626"/>
<path d="M17.3631 10.6313L19.8438 13.7321L17.3631 16.8329" stroke="#FFC117" stroke-width="1.701"/>
<path d="M12.4025 10.6313L9.92188 13.7321L12.4025 16.8329" stroke="#FFC117" stroke-width="1.701"/>
</g>
<defs>
<clipPath id="clip0_4711_59080">
<rect width="126" height="28.35" fill="white"/>
</clipPath>
</defs>
</svg>
