<svg width="343" height="277" viewBox="0 0 343 277" fill="none" xmlns="http://www.w3.org/2000/svg">
<g clip-path="url(#clip0_4711_59116)">
<rect x="0.0546875" y="59.1895" width="342.355" height="88.1965" rx="5.88239" fill="white"/>
<path d="M12.1889 74.4781V73.3302H18.2657V74.4781H15.9171V80.9551H14.548V74.4781H12.1889ZM18.2341 79.3437C18.2341 78.0589 19.2978 77.6797 20.3615 77.6166C20.7564 77.5902 21.5779 77.5428 21.8254 77.5323V77.0794C21.8254 76.5107 21.4567 76.1843 20.7933 76.1843C20.193 76.1843 19.8243 76.4581 19.719 76.8688H18.4236C18.5184 75.8999 19.3925 75.1627 20.8249 75.1627C21.9096 75.1627 23.1629 75.605 23.1629 77.1321V80.9551H21.878V80.1652H21.8359C21.5831 80.6497 21.046 81.0709 20.1508 81.0709C19.0555 81.0709 18.2341 80.4706 18.2341 79.3437ZM19.5295 79.3332C19.5295 79.8282 19.9297 80.081 20.4984 80.081C21.3093 80.081 21.8359 79.5438 21.8359 78.9014V78.4275C21.5884 78.4433 20.8406 78.4959 20.5721 78.5117C19.9297 78.5644 19.5295 78.8277 19.5295 79.3332ZM25.7747 77.606V80.9551H24.4267V75.2364H25.7115V76.2053H25.7852C26.0485 75.5629 26.6278 75.1627 27.4808 75.1627C28.6709 75.1627 29.4503 75.942 29.4397 77.3111V80.9551H28.1022V77.5218C28.1022 76.753 27.6915 76.3001 26.9859 76.3001C26.2697 76.3001 25.7747 76.774 25.7747 77.606ZM34.9372 75.426C34.874 74.773 34.3159 74.3939 33.4944 74.3939C32.6308 74.3939 32.1042 74.8151 32.1042 75.3838C32.1042 76.0263 32.7782 76.2896 33.4101 76.437L34.1263 76.6266C35.2637 76.8899 36.359 77.4902 36.359 78.8172C36.359 80.1547 35.3058 81.0709 33.4733 81.0709C31.6935 81.0709 30.5771 80.2179 30.5139 78.7118H31.862C31.9252 79.5122 32.5992 79.9019 33.4628 79.9019C34.3685 79.9019 34.9899 79.4596 34.9899 78.8066C34.9899 78.2063 34.4317 77.9536 33.6102 77.7429L32.7466 77.5218C31.4934 77.1953 30.714 76.5634 30.714 75.4681C30.714 74.1201 31.9147 73.2249 33.5155 73.2249C35.1373 73.2249 36.2326 74.1411 36.2537 75.426H34.9372ZM40.2873 75.2364V76.2685H39.1604V79.2384C39.1604 79.7861 39.4342 79.9019 39.7712 79.9019C39.9292 79.9019 40.1925 79.8914 40.361 79.8809V80.9761C40.203 81.0077 39.9397 81.0288 39.6027 81.0288C38.5917 81.0288 37.8124 80.5338 37.8229 79.4596V76.2685H37.0014V75.2364H37.8229V73.8673H39.1604V75.2364H40.2873ZM41.0561 79.3437C41.0561 78.0589 42.1198 77.6797 43.1835 77.6166C43.5784 77.5902 44.3999 77.5428 44.6474 77.5323V77.0794C44.6474 76.5107 44.2788 76.1843 43.6153 76.1843C43.015 76.1843 42.6464 76.4581 42.5411 76.8688H41.2457C41.3405 75.8999 42.2146 75.1627 43.6469 75.1627C44.7316 75.1627 45.9849 75.605 45.9849 77.1321V80.9551H44.7V80.1652H44.6579C44.4052 80.6497 43.868 81.0709 42.9729 81.0709C41.8776 81.0709 41.0561 80.4706 41.0561 79.3437ZM42.3515 79.3332C42.3515 79.8282 42.7517 80.081 43.3204 80.081C44.1313 80.081 44.6579 79.5438 44.6579 78.9014V78.4275C44.4104 78.4433 43.6627 78.4959 43.3941 78.5117C42.7517 78.5644 42.3515 78.8277 42.3515 79.3332ZM49.7447 81.0709C48.0386 81.0709 47.0065 79.8493 47.0065 78.1221C47.0065 76.3738 48.0702 75.1627 49.7447 75.1627C51.1349 75.1627 52.1038 75.9736 52.1986 77.2058H50.9137C50.8084 76.6582 50.4082 76.2369 49.7552 76.2369C48.9232 76.2369 48.365 76.9425 48.365 78.0905C48.365 79.27 48.9127 79.9756 49.7552 79.9756C50.3555 79.9756 50.7979 79.6281 50.9137 79.0067H52.1986C52.0932 80.2179 51.177 81.0709 49.7447 81.0709ZM53.2096 80.9551V73.3302H54.5576V77.5323H54.6524L56.7061 75.2364H58.2753L56.0637 77.7008L58.4122 80.9551H56.8114L55.0526 78.5012L54.5576 79.0278V80.9551H53.2096ZM64.5311 78.3959H65.7844L66.4373 79.249C66.8638 78.7961 67.1219 78.0852 67.1219 77.1426C67.1219 75.4049 66.2477 74.4571 65.005 74.4571C63.7623 74.4571 62.8882 75.4049 62.8882 77.1426C62.8882 78.8803 63.7623 79.8282 65.005 79.8282C65.2051 79.8282 65.3947 79.8019 65.5737 79.7545L64.5311 78.3959ZM68.5015 77.1426C68.5015 78.5275 68.0276 79.5912 67.2693 80.26L68.3225 81.6186H66.985L66.3531 80.8076C65.9423 80.9761 65.4895 81.0604 65.005 81.0604C63.004 81.0604 61.5085 79.5965 61.5085 77.1426C61.5085 74.6782 63.004 73.2249 65.005 73.2249C67.006 73.2249 68.5015 74.6782 68.5015 77.1426ZM73.325 78.5539V75.2364H74.6625V80.9551H73.3671V79.944H73.3039C73.0406 80.5759 72.4403 81.0288 71.5873 81.0288C70.4604 81.0288 69.6811 80.2495 69.6705 78.8803V75.2364H71.0186V78.6697C71.0186 79.3964 71.4504 79.8598 72.1033 79.8598C72.6931 79.8598 73.325 79.428 73.325 78.5539ZM78.4855 81.0709C76.7583 81.0709 75.7051 79.923 75.7051 78.1326C75.7051 76.3633 76.7794 75.1627 78.4118 75.1627C79.8125 75.1627 81.0236 76.0368 81.0236 78.0483V78.4696H77.0321C77.0479 79.4438 77.6219 80.0178 78.496 80.0178C79.0858 80.0178 79.486 79.765 79.6545 79.428H80.971C80.7287 80.418 79.8125 81.0709 78.4855 81.0709ZM77.0427 77.5534H79.7388C79.7282 76.774 79.2122 76.2053 78.4328 76.2053C77.6219 76.2053 77.0848 76.8214 77.0427 77.5534ZM82.0662 80.9551V75.2364H83.3722V76.1843H83.4354C83.6355 75.5313 84.1936 75.1522 84.8466 75.1522C84.994 75.1522 85.2047 75.1627 85.331 75.1837V76.4265C85.2152 76.3844 84.9308 76.3422 84.7097 76.3422C83.9619 76.3422 83.4143 76.8583 83.4143 77.585V80.9551H82.0662ZM87.1214 83.1035C86.8581 83.1035 86.5948 83.093 86.4263 83.0719V81.9977C86.5948 82.0082 86.816 82.0188 86.995 82.0188C87.3215 82.0188 87.5953 81.9872 87.827 81.3763L87.9429 81.0709L85.8576 75.2364H87.2794L88.6064 79.5544H88.6696L89.9966 75.2364H91.4183L89.1224 81.6502C88.796 82.5664 88.1957 83.1035 87.1214 83.1035ZM98.2849 76.595V77.7008H94.8516V76.595H98.2849ZM109.027 77.1426C109.027 79.607 107.532 81.0604 105.531 81.0604C103.53 81.0604 102.034 79.5965 102.034 77.1426C102.034 74.6782 103.53 73.2249 105.531 73.2249C107.532 73.2249 109.027 74.6782 109.027 77.1426ZM107.648 77.1426C107.648 75.4049 106.773 74.4571 105.531 74.4571C104.288 74.4571 103.414 75.4049 103.414 77.1426C103.414 78.8803 104.288 79.8282 105.531 79.8282C106.773 79.8282 107.648 78.8803 107.648 77.1426ZM110.186 83.1035V75.2364H111.502V76.1737H111.586C111.797 75.763 112.218 75.1627 113.229 75.1627C114.546 75.1627 115.588 76.1948 115.588 78.101C115.588 79.9862 114.577 81.0604 113.229 81.0604C112.239 81.0604 111.797 80.4706 111.586 80.0494H111.534V83.1035H110.186ZM111.502 78.0905C111.502 79.2068 111.987 79.9546 112.861 79.9546C113.745 79.9546 114.219 79.1752 114.219 78.0905C114.219 77.0268 113.756 76.258 112.861 76.258C111.987 76.258 111.502 76.9847 111.502 78.0905ZM119.496 75.2364V76.2685H118.369V79.2384C118.369 79.7861 118.643 79.9019 118.98 79.9019C119.138 79.9019 119.401 79.8914 119.569 79.8809V80.9761C119.411 81.0077 119.148 81.0288 118.811 81.0288C117.8 81.0288 117.021 80.5338 117.031 79.4596V76.2685H116.21V75.2364H117.031V73.8673H118.369V75.2364H119.496ZM120.528 80.9551V75.2364H121.876V80.9551H120.528ZM121.212 74.4255C120.791 74.4255 120.433 74.099 120.433 73.6883C120.433 73.2881 120.791 72.9616 121.212 72.9616C121.644 72.9616 121.992 73.2881 121.992 73.6883C121.992 74.099 121.644 74.4255 121.212 74.4255ZM123.161 80.9551V75.2364H124.445V76.2053H124.519C124.751 75.5524 125.33 75.1627 126.088 75.1627C126.868 75.1627 127.415 75.5524 127.637 76.2053H127.7C127.953 75.5734 128.584 75.1627 129.416 75.1627C130.459 75.1627 131.196 75.8367 131.196 77.111V80.9551H129.859V77.3217C129.859 76.6055 129.427 76.2896 128.879 76.2896C128.216 76.2896 127.837 76.7424 127.837 77.3849V80.9551H126.531V77.269C126.531 76.6792 126.131 76.2896 125.562 76.2896C124.983 76.2896 124.509 76.7635 124.509 77.4796V80.9551H123.161ZM132.481 80.9551V75.2364H133.829V80.9551H132.481ZM133.166 74.4255C132.744 74.4255 132.386 74.099 132.386 73.6883C132.386 73.2881 132.744 72.9616 133.166 72.9616C133.597 72.9616 133.945 73.2881 133.945 73.6883C133.945 74.099 133.597 74.4255 133.166 74.4255ZM138.358 76.8688C138.274 76.437 137.915 76.1632 137.347 76.1632C136.767 76.1632 136.346 76.4475 136.357 76.8372C136.346 77.1321 136.588 77.3533 137.168 77.4902L138.137 77.6903C139.221 77.9325 139.737 78.4275 139.748 79.249C139.737 80.3232 138.8 81.0709 137.305 81.0709C135.851 81.0709 134.988 80.418 134.851 79.3227H136.22C136.304 79.8071 136.683 80.0494 137.305 80.0494C137.947 80.0494 138.379 79.7861 138.379 79.3648C138.379 79.0383 138.116 78.8277 137.547 78.7013L136.631 78.5012C135.567 78.2906 135.019 77.7324 135.019 76.9109C135.019 75.8578 135.925 75.1627 137.326 75.1627C138.695 75.1627 139.537 75.8262 139.632 76.8688H138.358ZM143.624 75.2364V76.2685H142.497V79.2384C142.497 79.7861 142.771 79.9019 143.108 79.9019C143.266 79.9019 143.529 79.8914 143.697 79.8809V80.9761C143.539 81.0077 143.276 81.0288 142.939 81.0288C141.928 81.0288 141.149 80.5338 141.159 79.4596V76.2685H140.338V75.2364H141.159V73.8673H142.497V75.2364H143.624ZM144.656 80.9551V75.2364H146.004V80.9551H144.656ZM145.34 74.4255C144.919 74.4255 144.561 74.099 144.561 73.6883C144.561 73.2881 144.919 72.9616 145.34 72.9616C145.772 72.9616 146.12 73.2881 146.12 73.6883C146.12 74.099 145.772 74.4255 145.34 74.4255ZM149.785 81.0709C148.078 81.0709 147.046 79.8493 147.046 78.1221C147.046 76.3738 148.11 75.1627 149.785 75.1627C151.175 75.1627 152.144 75.9736 152.238 77.2058H150.954C150.848 76.6582 150.448 76.2369 149.795 76.2369C148.963 76.2369 148.405 76.9425 148.405 78.0905C148.405 79.27 148.953 79.9756 149.795 79.9756C150.395 79.9756 150.838 79.6281 150.954 79.0067H152.238C152.133 80.2179 151.217 81.0709 149.785 81.0709ZM160.685 73.3302H162.064V78.3116C162.064 79.944 160.822 81.0709 158.968 81.0709C157.104 81.0709 155.872 79.944 155.872 78.3116V73.3302H157.241V78.1958C157.241 79.1542 157.915 79.8493 158.968 79.8493C160.021 79.8493 160.685 79.1542 160.685 78.1958V73.3302ZM163.413 83.1035V75.2364H164.729V76.1737H164.813C165.024 75.763 165.445 75.1627 166.456 75.1627C167.773 75.1627 168.815 76.1948 168.815 78.101C168.815 79.9862 167.804 81.0604 166.456 81.0604C165.466 81.0604 165.024 80.4706 164.813 80.0494H164.761V83.1035H163.413ZM164.729 78.0905C164.729 79.2068 165.213 79.9546 166.088 79.9546C166.972 79.9546 167.446 79.1752 167.446 78.0905C167.446 77.0268 166.983 76.258 166.088 76.258C165.213 76.258 164.729 76.9847 164.729 78.0905ZM171.996 81.0604C170.648 81.0604 169.637 79.9862 169.637 78.101C169.637 76.1948 170.679 75.1627 172.006 75.1627C173.017 75.1627 173.439 75.763 173.639 76.1737H173.691V73.3302H175.029V80.9551H173.712V80.0494H173.639C173.428 80.4706 172.986 81.0604 171.996 81.0604ZM172.364 79.9546C173.228 79.9546 173.723 79.2068 173.723 78.0905C173.723 76.9847 173.239 76.258 172.364 76.258C171.469 76.258 171.006 77.0268 171.006 78.0905C171.006 79.1752 171.48 79.9546 172.364 79.9546ZM176.124 79.3437C176.124 78.0589 177.188 77.6797 178.252 77.6166C178.647 77.5902 179.468 77.5428 179.715 77.5323V77.0794C179.715 76.5107 179.347 76.1843 178.683 76.1843C178.083 76.1843 177.714 76.4581 177.609 76.8688H176.314C176.409 75.8999 177.283 75.1627 178.715 75.1627C179.8 75.1627 181.053 75.605 181.053 77.1321V80.9551H179.768V80.1652H179.726C179.473 80.6497 178.936 81.0709 178.041 81.0709C176.946 81.0709 176.124 80.4706 176.124 79.3437ZM177.42 79.3332C177.42 79.8282 177.82 80.081 178.388 80.081C179.199 80.081 179.726 79.5438 179.726 78.9014V78.4275C179.479 78.4433 178.731 78.4959 178.462 78.5117C177.82 78.5644 177.42 78.8277 177.42 79.3332ZM185.171 75.2364V76.2685H184.044V79.2384C184.044 79.7861 184.318 79.9019 184.655 79.9019C184.813 79.9019 185.076 79.8914 185.245 79.8809V80.9761C185.087 81.0077 184.823 81.0288 184.486 81.0288C183.475 81.0288 182.696 80.5338 182.706 79.4596V76.2685H181.885V75.2364H182.706V73.8673H184.044V75.2364H185.171ZM188.678 81.0709C186.951 81.0709 185.898 79.923 185.898 78.1326C185.898 76.3633 186.972 75.1627 188.604 75.1627C190.005 75.1627 191.216 76.0368 191.216 78.0483V78.4696H187.225C187.24 79.4438 187.814 80.0178 188.688 80.0178C189.278 80.0178 189.678 79.765 189.847 79.428H191.163C190.921 80.418 190.005 81.0709 188.678 81.0709ZM187.235 77.5534H189.931C189.921 76.774 189.405 76.2053 188.625 76.2053C187.814 76.2053 187.277 76.8214 187.235 77.5534ZM195.502 76.8688C195.418 76.437 195.06 76.1632 194.491 76.1632C193.912 76.1632 193.491 76.4475 193.501 76.8372C193.491 77.1321 193.733 77.3533 194.312 77.4902L195.281 77.6903C196.366 77.9325 196.882 78.4275 196.893 79.249C196.882 80.3232 195.945 81.0709 194.449 81.0709C192.996 81.0709 192.132 80.418 191.995 79.3227H193.364C193.449 79.8071 193.828 80.0494 194.449 80.0494C195.092 80.0494 195.523 79.7861 195.523 79.3648C195.523 79.0383 195.26 78.8277 194.691 78.7013L193.775 78.5012C192.711 78.2906 192.164 77.7324 192.164 76.9109C192.164 75.8578 193.07 75.1627 194.47 75.1627C195.839 75.1627 196.682 75.8262 196.777 76.8688H195.502Z" fill="#404040"/>
<rect x="11.8203" y="90.8184" width="47.7648" height="12.9412" rx="3.92159" fill="#F66E6B"/>
<path d="M22.3286 99.2891V96.1185H22.3149L21.2306 99.2891H20.3178L19.2267 96.0773H19.2129V99.2891H18.2865V94.4851H19.5629L20.7708 98.0194H20.7845L21.9855 94.4851H23.2551V99.2891H22.3286ZM27.4041 98.8636L26.608 99.3234H25.1462L24.3501 98.8636V96.2832L25.1462 95.8234H26.608L27.4041 96.2832V98.8636ZM25.2903 96.6263V98.5204H26.4639V96.6263H25.2903ZM29.2277 95.8234H30.1267L30.614 96.1047V94.2792H31.5542V99.3234H30.7787L30.614 99.042L30.1267 99.3234H29.2277L28.4316 98.8636V96.2832L29.2277 95.8234ZM30.614 98.5204V96.6263H29.3718V98.5204H30.614ZM35.4349 98.4861V99.2891H33.3829L32.5868 98.8293V96.2832L33.3829 95.8234H34.6388L35.4349 96.2832V97.9234H33.527V98.4861H35.4349ZM33.527 96.6263V97.2165H34.4947V96.6263H33.527ZM38.5878 96.6606H37.4074V99.2891H36.4672V95.8577H37.2427L37.4074 96.139L37.8947 95.8577H38.5878V96.6606ZM42.3293 96.2832V99.2891H41.3891V96.6263H40.2155V99.2891H39.2753V95.8234H40.0508L40.2155 96.1047L40.7028 95.8234H41.5332L42.3293 96.2832ZM46.8209 98.4998V94.4851H47.7817V98.8636L46.9856 99.3234H45.5239L44.7278 98.8636V97.5391H45.6886V98.4998H46.8209ZM48.9478 96.8528V94.9106L49.7439 94.4508H51.4802L52.2763 94.9106V95.8234H51.3155V95.2743H49.9086V96.4204H51.4802L52.2763 96.8802V98.8636L51.4802 99.3234H49.6753L48.8792 98.8636V97.9508H49.84V98.4998H51.3155V97.3126H49.7439L48.9478 96.8528Z" fill="#525252"/>
<rect x="63.7529" y="91.0635" width="29.3726" height="12.4118" rx="3.67649" fill="white"/>
<rect x="63.7529" y="91.0635" width="29.3726" height="12.4118" rx="3.67649" stroke="#D4D4D4" stroke-width="0.490199"/>
<path d="M69.6571 97.7262C70.8644 97.7262 71.6236 98.1058 71.6298 98.7592C71.6236 99.4064 70.8644 99.7923 69.6571 99.7861C68.4622 99.7923 67.6967 99.4064 67.6967 98.7592C67.6967 98.1058 68.4622 97.7262 69.6571 97.7262ZM69.6571 98.1742C68.8107 98.1742 68.2817 98.3921 68.2879 98.7592C68.2817 99.1202 68.8107 99.3318 69.6571 99.3318C70.5096 99.3318 71.0386 99.1202 71.0448 98.7592C71.0386 98.3921 70.5096 98.1742 69.6571 98.1742ZM71.5863 94.4963V94.9631C71.5863 95.4111 71.5863 95.8716 71.4307 96.4442L70.8519 96.382C71.0013 95.8125 71.0013 95.4018 71.0013 94.9693H67.7403V94.4963H71.5863ZM72.221 96.7865V97.2657H67.1491V96.7865H69.1841V95.741H69.7628V96.7865H72.221ZM74.6792 95.0253C74.673 95.797 75.202 96.5002 76.0608 96.7865L75.762 97.2532C75.1179 97.0261 74.6325 96.5718 74.3805 95.9899C74.1316 96.6153 73.643 97.1101 72.9803 97.3466L72.6815 96.886C73.5528 96.5749 74.0755 95.8219 74.0755 95.0253V94.4901H74.6792V95.0253ZM77.2743 97.8382V99.7985H76.6831V98.3174H73.4968V97.8382H77.2743ZM77.2743 94.2225V97.5706H76.6831V94.2225H77.2743ZM83.2548 97.0416V97.5208H81.0393V98.6036H80.4544V97.5208H78.1518V97.0416H83.2548ZM82.5952 94.4839V96.4629H78.8052V94.4839H82.5952ZM79.384 94.9506V95.9961H82.0102V94.9506H79.384ZM82.6885 99.2011V99.6803H78.7865V98.0747H79.3777V99.2011H82.6885ZM85.6757 95.6414C85.6757 96.662 86.2482 97.6764 87.1008 98.0622L86.7398 98.5352C86.1051 98.2178 85.629 97.5861 85.3832 96.8238C85.1373 97.6266 84.6488 98.3049 84.0078 98.641L83.6344 98.1618C84.4995 97.7511 85.0782 96.6744 85.0782 95.6414V94.6892H85.6757V95.6414ZM88.3143 94.2225V99.811H87.7293V96.5562H86.4847V96.077H87.7293V94.2225H88.3143Z" fill="#525252"/>
<path d="M11.8203 111.602H476.529" stroke="#E5E5E5" stroke-width="0.490199" stroke-linecap="round"/>
<path d="M14.6995 123.611L13.7812 124.53" stroke="#262626" stroke-width="0.459127" stroke-linecap="round"/>
<path d="M20.6677 123.611L21.5859 124.53" stroke="#262626" stroke-width="0.459127" stroke-linecap="round"/>
<circle cx="17.6847" cy="127.513" r="3.67301" fill="#FFC117"/>
<path d="M17.6836 125.217V127.478C17.6836 127.5 17.6903 127.522 17.7029 127.541L18.6018 128.89" stroke="#262626" stroke-width="0.459127" stroke-linecap="round"/>
<path d="M25.9701 129.533L25.9638 129.122L27.501 127.504C28.0362 126.938 28.2913 126.633 28.2913 126.216C28.2913 125.756 27.8993 125.451 27.3952 125.451C26.86 125.451 26.5177 125.793 26.5177 126.297H25.9887C25.9825 125.501 26.5986 124.965 27.4138 124.965C28.2291 124.965 28.8141 125.513 28.8141 126.216C28.8141 126.72 28.5776 127.112 27.781 127.934L26.748 128.998V129.035H28.895V129.533H25.9701ZM31.1851 129.595C30.1832 129.595 29.6106 128.755 29.6106 127.28C29.6106 125.818 30.1956 124.965 31.1851 124.965C32.1746 124.965 32.7596 125.818 32.7596 127.28C32.7596 128.755 32.1808 129.595 31.1851 129.595ZM31.1851 129.098C31.8323 129.098 32.212 128.444 32.212 127.28C32.212 126.117 31.8323 125.451 31.1851 125.451C30.5379 125.451 30.1521 126.117 30.1521 127.28C30.1521 128.444 30.5317 129.098 31.1851 129.098ZM33.5064 129.533L33.5002 129.122L35.0373 127.504C35.5725 126.938 35.8277 126.633 35.8277 126.216C35.8277 125.756 35.4356 125.451 34.9315 125.451C34.3963 125.451 34.054 125.793 34.054 126.297H33.5251C33.5188 125.501 34.1349 124.965 34.9502 124.965C35.7654 124.965 36.3504 125.513 36.3504 126.216C36.3504 126.72 36.1139 127.112 35.3173 127.934L34.2843 128.998V129.035H36.4313V129.533H33.5064ZM37.035 128.612V128.152L39.0637 125.028H39.7545V128.121H40.3831V128.612H39.7545V129.533H39.2193V128.612H37.035ZM37.6386 128.121H39.2193V125.737H39.1633L37.6386 128.083V128.121ZM45.511 124.511V128.606H45.0194V126.689H43.4262V126.297H45.0194V125.631H43.4262V125.239H45.0194V124.511H45.511ZM45.6604 129.508V129.919H41.9451V128.257H42.4367V129.508H45.6604ZM41.7459 124.909V127.368C42.5083 127.364 43.2426 127.324 44.0859 127.168L44.1357 127.573C43.2333 127.741 42.4803 127.778 41.6713 127.784H41.2543V124.909H41.7459ZM48.2306 129.533L48.2243 129.122L49.7615 127.504C50.2967 126.938 50.5518 126.633 50.5518 126.216C50.5518 125.756 50.1598 125.451 49.6557 125.451C49.1205 125.451 48.7782 125.793 48.7782 126.297H48.2492C48.243 125.501 48.8591 124.965 49.6743 124.965C50.4896 124.965 51.0746 125.513 51.0746 126.216C51.0746 126.72 50.8381 127.112 50.0415 127.934L49.0085 128.998V129.035H51.1555V129.533H48.2306ZM56.3332 124.511V127.772H55.8416V127.467H54.7214V127.143H55.8416V124.511H56.3332ZM51.7529 126.596C52.8233 126.602 54.1924 126.59 55.3873 126.459L55.4184 126.776C54.877 126.854 54.3138 126.901 53.763 126.926V127.791H53.2838V126.944C52.7611 126.963 52.2601 126.966 51.8089 126.963L51.7529 126.596ZM56.3332 127.971V129.116H53.1033V129.614H56.5137V129.975H52.6242V128.774H55.8478V128.326H52.5993V127.971H56.3332ZM53.5576 124.617C54.3791 124.617 54.9268 124.94 54.933 125.451C54.9268 125.967 54.3791 126.278 53.5576 126.278C52.7237 126.278 52.1823 125.967 52.1823 125.451C52.1823 124.94 52.7237 124.617 53.5576 124.617ZM53.5576 124.959C52.9976 124.959 52.6366 125.152 52.6428 125.451C52.6366 125.743 52.9976 125.942 53.5576 125.942C54.1115 125.942 54.4725 125.743 54.4725 125.451C54.4725 125.152 54.1115 124.959 53.5576 124.959ZM59.0776 129.533L59.0714 129.122L60.6086 127.504C61.1438 126.938 61.3989 126.633 61.3989 126.216C61.3989 125.756 61.0069 125.451 60.5028 125.451C59.9676 125.451 59.6253 125.793 59.6253 126.297H59.0963C59.0901 125.501 59.7062 124.965 60.5214 124.965C61.3367 124.965 61.9217 125.513 61.9217 126.216C61.9217 126.72 61.6852 127.112 60.8886 127.934L59.8556 128.998V129.035H62.0026V129.533H59.0776ZM64.3238 129.595C63.3779 129.595 62.7182 129.073 62.7245 128.338C62.7182 127.753 63.1227 127.274 63.6393 127.193V127.168C63.1912 127.063 62.8987 126.652 62.8987 126.16C62.8987 125.469 63.5024 124.965 64.3238 124.965C65.1453 124.965 65.749 125.469 65.7552 126.16C65.749 126.652 65.4502 127.063 65.0084 127.168V127.193C65.5187 127.274 65.9232 127.753 65.9294 128.338C65.9232 129.073 65.2635 129.595 64.3238 129.595ZM64.3238 129.104C64.971 129.104 65.3693 128.78 65.3693 128.307C65.3693 127.809 64.9275 127.442 64.3238 127.442C63.7202 127.442 63.2721 127.809 63.2846 128.307C63.2721 128.78 63.6766 129.104 64.3238 129.104ZM64.3238 126.969C64.8341 126.969 65.2075 126.658 65.2075 126.204C65.2075 125.756 64.8528 125.451 64.3238 125.451C63.7886 125.451 63.4401 125.756 63.4401 126.204C63.4401 126.658 63.8073 126.969 64.3238 126.969ZM68.0515 124.71C68.8792 124.716 69.4829 125.214 69.4829 125.936C69.4829 126.658 68.8792 127.156 68.0515 127.156C67.2114 127.156 66.614 126.658 66.614 125.936C66.614 125.214 67.2114 124.716 68.0515 124.71ZM68.0515 125.121C67.4977 125.121 67.0869 125.457 67.0932 125.936C67.0869 126.422 67.4977 126.758 68.0515 126.758C68.5992 126.758 69.0099 126.422 69.0099 125.936C69.0099 125.457 68.5992 125.121 68.0515 125.121ZM71.0511 124.505V127.349H70.5657V124.505H71.0511ZM71.0511 127.616V128.948H67.9458V129.571H71.2503V129.963H67.4666V128.581H70.5657V128.009H67.4541V127.616H71.0511ZM76.372 125.065V128.631H73.8205V125.065H76.372ZM74.2934 125.457V128.233H75.8866V125.457H74.2934ZM77.8718 124.505V126.714H78.7991V127.137H77.8718V130.037H77.3864V124.505H77.8718ZM83.4229 124.505V125.861H84.2568V126.266H83.4229V127.648H82.9375V124.505H83.4229ZM81.9107 124.866C81.9045 126.26 80.9274 127.256 79.2907 127.704L79.0916 127.312C80.4544 126.944 81.2853 126.207 81.3879 125.27H79.3405V124.866H81.9107ZM83.4229 127.903V129.963H79.9193V127.903H83.4229ZM80.4047 128.307V129.564H82.9375V128.307H80.4047Z" fill="#525252"/>
<circle cx="98.7636" cy="126.062" r="1.4706" fill="#262626"/>
<circle cx="93.8612" cy="126.062" r="1.4706" fill="#262626"/>
<path d="M98.7617 128.023C99.9617 128.023 100.443 129.223 100.623 129.943C100.693 130.225 100.471 130.475 100.181 130.475H99.04C98.8425 129.735 98.461 128.896 97.7227 128.416C97.9883 128.182 98.3275 128.023 98.7617 128.023Z" fill="#262626"/>
<path d="M93.8618 128.023C94.2958 128.023 94.6352 128.182 94.9008 128.416C94.1626 128.896 93.7809 129.735 93.5835 130.475H92.4428C92.1529 130.475 91.931 130.225 92.0014 129.943C92.1819 129.223 92.6622 128.024 93.8618 128.023Z" fill="#262626"/>
<circle cx="96.3124" cy="126.062" r="1.9608" fill="#FFC117"/>
<path d="M96.3104 128.514C98.1284 128.514 98.5979 130.132 98.7191 130.968C98.758 131.236 98.5419 131.455 98.2712 131.455H94.3496C94.0788 131.455 93.8627 131.236 93.9016 130.968C94.0229 130.132 94.4924 128.514 96.3104 128.514Z" fill="#FFC117"/>
<path d="M106.048 129.595C105.233 129.595 104.617 129.091 104.586 128.401H105.127C105.171 128.805 105.563 129.104 106.048 129.104C106.633 129.104 107.056 128.674 107.056 128.108C107.056 127.523 106.614 127.094 106.011 127.087C105.631 127.081 105.339 127.199 105.171 127.492H104.629L104.947 125.028H107.386V125.525H105.413L105.245 126.845H105.289C105.488 126.689 105.793 126.583 106.11 126.583C106.969 126.583 107.604 127.218 107.604 128.096C107.604 128.967 106.944 129.595 106.048 129.595ZM109.994 124.816L108.537 130.212H108.052L109.502 124.816H109.994ZM111.979 129.595C111.164 129.595 110.548 129.091 110.516 128.401H111.058C111.101 128.805 111.493 129.104 111.979 129.104C112.564 129.104 112.987 128.674 112.987 128.108C112.987 127.523 112.545 127.094 111.942 127.087C111.562 127.081 111.269 127.199 111.101 127.492H110.56L110.877 125.028H113.317V125.525H111.344L111.176 126.845H111.22C111.419 126.689 111.724 126.583 112.041 126.583C112.9 126.583 113.535 127.218 113.535 128.096C113.535 128.967 112.875 129.595 111.979 129.595ZM117.598 125.656C117.598 126.334 118.159 126.938 118.974 127.181L118.744 127.567C118.106 127.368 117.608 126.954 117.368 126.422C117.125 127.01 116.612 127.458 115.955 127.672L115.713 127.287C116.534 127.038 117.119 126.397 117.119 125.656V125.557H115.868V125.164H117.119V124.48H117.611V125.164H118.849V125.557H117.598V125.656ZM120.038 124.505V125.911H120.872V126.322H120.038V127.784H119.553V124.505H120.038ZM120.038 128.04V129.963H116.547V128.04H120.038ZM117.026 128.425V129.564H119.553V128.425H117.026ZM122.708 124.934C123.215 124.937 123.626 125.233 123.865 125.743H125.321V124.505H125.807V130.05H125.321V127.903H123.903C123.669 128.463 123.243 128.786 122.708 128.786C121.892 128.786 121.32 128.04 121.32 126.863C121.32 125.687 121.892 124.94 122.708 124.934ZM122.708 125.37C122.16 125.376 121.787 125.961 121.787 126.863C121.787 127.766 122.16 128.351 122.708 128.351C123.249 128.351 123.629 127.766 123.629 126.863C123.629 125.961 123.249 125.376 122.708 125.37ZM124.008 126.154C124.058 126.369 124.089 126.605 124.089 126.863C124.089 127.091 124.064 127.305 124.027 127.498H125.321V126.154H124.008ZM130.014 124.766C130.823 124.766 131.389 125.202 131.389 125.861C131.389 126.431 130.941 126.845 130.275 126.926V127.467C130.792 127.445 131.318 127.399 131.8 127.324L131.837 127.691C130.667 127.903 129.342 127.915 128.383 127.915L128.321 127.511C128.75 127.514 129.255 127.511 129.784 127.492V126.932C129.099 126.857 128.638 126.44 128.645 125.861C128.638 125.202 129.205 124.766 130.014 124.766ZM130.014 125.146C129.479 125.146 129.099 125.432 129.105 125.861C129.099 126.278 129.479 126.565 130.014 126.571C130.555 126.565 130.922 126.278 130.929 125.861C130.922 125.432 130.555 125.146 130.014 125.146ZM132.646 124.511V126.384H133.474V126.801H132.646V128.743H132.155V124.511H132.646ZM132.845 129.502V129.913H129.13V128.376H129.622V129.502H132.845ZM138.901 128.942V129.353H133.835V128.942H135.26V127.89H134.47V126.185H137.78V125.32H134.457V124.916H138.26V126.59H134.955V127.486H138.39V127.89H137.525V128.942H138.901ZM135.739 128.942H137.046V127.89H135.739V128.942Z" fill="#525252"/>
<ellipse cx="324.359" cy="76.8362" rx="0.441179" ry="0.441179" transform="rotate(-90 324.359 76.8362)" fill="#A3A3A3" stroke="#A3A3A3" stroke-width="0.980398" stroke-linecap="round"/>
<ellipse cx="324.359" cy="80.1702" rx="0.441179" ry="0.441179" transform="rotate(-90 324.359 80.1702)" fill="#A3A3A3" stroke="#A3A3A3" stroke-width="0.980398" stroke-linecap="round"/>
<ellipse cx="324.359" cy="73.5022" rx="0.441179" ry="0.441179" transform="rotate(-90 324.359 73.5022)" fill="#A3A3A3" stroke="#A3A3A3" stroke-width="0.980398" stroke-linecap="round"/>
</g>
<rect x="0.544887" y="59.6797" width="341.375" height="87.2161" rx="5.39219" stroke="#262626" stroke-width="0.980398"/>
<g clip-path="url(#clip1_4711_59116)">
<rect x="0.0546875" y="155.473" width="342.355" height="88.1965" rx="5.88239" fill="white"/>
<path d="M14.1373 177.238L11.9888 169.613H13.4632L14.8429 175.227H14.9166L16.3805 169.613H17.7286L19.203 175.237H19.2662L20.6458 169.613H22.1202L19.9718 177.238H18.6132L17.0861 171.878H17.0335L15.4958 177.238H14.1373ZM24.8795 177.354C23.1523 177.354 22.0992 176.206 22.0992 174.416C22.0992 172.646 23.1734 171.446 24.8058 171.446C26.2065 171.446 27.4176 172.32 27.4176 174.332V174.753H23.4262C23.442 175.727 24.0159 176.301 24.8901 176.301C25.4798 176.301 25.88 176.048 26.0485 175.711H27.365C27.1228 176.701 26.2065 177.354 24.8795 177.354ZM23.4367 173.837H26.1328C26.1223 173.057 25.6062 172.489 24.8269 172.489C24.0159 172.489 23.4788 173.105 23.4367 173.837ZM28.5235 177.238V169.613H29.8715V172.457H29.9242C30.1348 172.046 30.5455 171.446 31.5566 171.446C32.8836 171.446 33.9262 172.478 33.9262 174.384C33.9262 176.269 32.9046 177.344 31.5671 177.344C30.5771 177.344 30.1348 176.754 29.9242 176.333H29.8399V177.238H28.5235ZM29.8399 174.374C29.8399 175.49 30.3244 176.238 31.188 176.238C32.0832 176.238 32.5571 175.458 32.5571 174.374C32.5571 173.31 32.0937 172.541 31.188 172.541C30.3244 172.541 29.8399 173.268 29.8399 174.374ZM45.3846 168.655V178.176H44.2577V173.289H43.2361V177.733H42.1409V168.908H43.2361V172.341H44.2577V168.655H45.3846ZM41.3299 169.856C41.3299 172.425 40.519 174.637 37.8124 176.185L37.1383 175.374C39.1657 174.2 40.024 172.694 40.1925 170.793H37.5807V169.856H41.3299ZM48.0175 169.076V170.287H50.2397V169.076H51.3982V173.226H46.859V169.076H48.0175ZM48.0175 172.299H50.2397V171.172H48.0175V172.299ZM54.0416 168.655V170.582H55.3686V171.53H54.0416V173.531H52.8726V168.655H54.0416ZM54.0416 173.91V176.406H48.9864V177.165H54.3365V178.091H47.8279V175.553H52.8726V174.827H47.8174V173.91H54.0416ZM59.2653 171.362C59.2653 172.836 60.1394 174.511 61.6454 175.206L60.9925 176.132C59.9182 175.627 59.1231 174.605 58.6966 173.415C58.2648 174.721 57.4328 175.838 56.3375 176.364L55.6529 175.448C57.1695 174.732 58.0857 172.941 58.0963 171.362V170.561H56.0215V169.592H61.2558V170.561H59.2653V171.362ZM63.3094 168.655V172.362H64.7733V173.342H63.3094V178.176H62.1404V168.655H63.3094ZM68.2593 169.319C69.7653 169.308 70.8711 170.266 70.8817 171.614C70.8711 172.973 69.7653 173.921 68.2593 173.921C66.7638 173.921 65.6474 172.973 65.6474 171.614C65.6474 170.266 66.7638 169.308 68.2593 169.319ZM68.2593 170.33C67.4273 170.33 66.8059 170.825 66.8059 171.614C66.8059 172.415 67.4273 172.899 68.2593 172.899C69.1018 172.899 69.7337 172.415 69.7337 171.614C69.7337 170.825 69.1018 170.33 68.2593 170.33ZM73.1038 168.655V178.186H71.9348V168.655H73.1038ZM65.2156 175.237C66.9323 175.237 69.3124 175.216 71.3661 174.921L71.4609 175.774C69.323 176.185 67.0376 176.196 65.3631 176.196L65.2156 175.237ZM84.994 168.655V173.563H83.825V168.655H84.994ZM84.994 173.963V176.417H79.7914V177.165H85.2995V178.091H78.6329V175.564H83.8356V174.879H78.6119V173.963H84.994ZM82.635 169.266V170.172H81.7819V172.246C82.2137 172.209 82.635 172.167 83.0352 172.12L83.0878 172.962C81.1921 173.257 79.0015 173.321 77.3375 173.321L77.2112 172.394C77.5534 172.394 77.9168 172.388 78.2959 172.383V170.172H77.4639V169.266H82.635ZM79.4228 172.362C79.8335 172.352 80.2495 172.336 80.6655 172.309V170.172H79.4228V172.362ZM91.3341 169.445C91.3341 170.645 92.6716 171.857 94.7042 172.12L94.2408 173.068C92.6242 172.826 91.3393 172.03 90.7232 170.951C90.0966 172.03 88.817 172.826 87.2162 173.068L86.7528 172.12C88.7644 171.857 90.1019 170.645 90.1019 169.445V168.96H91.3341V169.445ZM95.0517 173.889V174.858H91.2709V178.176H90.1124V174.858H86.3737V173.889H95.0517ZM106.952 176.059V177.017H98.2533V176.059H100.265V173.647C99.5066 173.215 99.0485 172.536 99.0538 171.688C99.0432 170.172 100.539 169.171 102.582 169.171C104.636 169.171 106.131 170.172 106.131 171.688C106.131 172.52 105.689 173.189 104.951 173.626V176.059H106.952ZM102.582 170.098C101.16 170.098 100.191 170.698 100.202 171.688C100.191 172.668 101.16 173.278 102.582 173.278C104.004 173.278 104.983 172.668 104.983 171.688C104.983 170.698 104.004 170.098 102.582 170.098ZM101.423 176.059H103.761V174.068C103.398 174.153 103.003 174.195 102.582 174.195C102.171 174.195 101.781 174.153 101.423 174.079V176.059ZM115.546 168.666V175.648H114.377V172.446H112.545V171.477H114.377V168.666H115.546ZM112.608 169.382C112.608 171.888 110.944 173.773 108.195 174.648L107.7 173.71C109.754 173.057 111.107 171.846 111.334 170.34H108.195V169.382H112.608ZM115.789 177.038V177.986H109.343V174.942H110.533V177.038H115.789Z" fill="#404040"/>
<rect x="11.8203" y="187.102" width="26.7648" height="12.9412" rx="3.92159" fill="#F7EA5D"/>
<path d="M24.1198 190.768L22.8983 195.572H21.8688L21.0041 192.326H20.9904L20.1257 195.572H19.0963L17.8747 190.768H18.808L19.6178 194.062H19.6316L20.51 190.768H21.4845L22.363 194.049H22.3767L23.1865 190.768H24.1198ZM27.6539 194.769V195.572H25.6019L24.8058 195.112V192.566L25.6019 192.107H26.8578L27.6539 192.566V194.207H25.746V194.769H27.6539ZM25.746 192.91V193.5H26.7137V192.91H25.746ZM30.1137 192.107H31.0128L31.8088 192.566V195.147L31.0128 195.607H30.1137L29.6265 195.325L29.1392 195.607H28.6863V190.562H29.6265V192.388L30.1137 192.107ZM29.6265 192.91V194.804H30.8686V192.91H29.6265Z" fill="#525252"/>
<rect x="42.7529" y="187.347" width="29.3726" height="12.4118" rx="3.67649" fill="white"/>
<rect x="42.7529" y="187.347" width="29.3726" height="12.4118" rx="3.67649" stroke="#D4D4D4" stroke-width="0.490199"/>
<path d="M48.6571 194.009C49.8644 194.009 50.6236 194.389 50.6298 195.042C50.6236 195.69 49.8644 196.075 48.6571 196.069C47.4622 196.075 46.6967 195.69 46.6967 195.042C46.6967 194.389 47.4622 194.009 48.6571 194.009ZM48.6571 194.457C47.8107 194.457 47.2817 194.675 47.2879 195.042C47.2817 195.403 47.8107 195.615 48.6571 195.615C49.5096 195.615 50.0386 195.403 50.0448 195.042C50.0386 194.675 49.5096 194.457 48.6571 194.457ZM50.5863 190.78V191.246C50.5863 191.694 50.5863 192.155 50.4307 192.727L49.8519 192.665C50.0013 192.096 50.0013 191.685 50.0013 191.252H46.7403V190.78H50.5863ZM51.221 193.07V193.549H46.1491V193.07H48.1841V192.024H48.7628V193.07H51.221ZM53.6792 191.308C53.673 192.08 54.202 192.783 55.0608 193.07L54.762 193.536C54.1179 193.309 53.6325 192.855 53.3805 192.273C53.1316 192.899 52.643 193.393 51.9803 193.63L51.6815 193.169C52.5528 192.858 53.0755 192.105 53.0755 191.308V190.773H53.6792V191.308ZM56.2743 194.121V196.082H55.6831V194.601H52.4968V194.121H56.2743ZM56.2743 190.506V193.854H55.6831V190.506H56.2743ZM62.2548 193.325V193.804H60.0393V194.887H59.4544V193.804H57.1518V193.325H62.2548ZM61.5952 190.767V192.746H57.8052V190.767H61.5952ZM58.384 191.234V192.279H61.0102V191.234H58.384ZM61.6885 195.484V195.963H57.7865V194.358H58.3777V195.484H61.6885ZM64.6757 191.925C64.6757 192.945 65.2482 193.96 66.1008 194.345L65.7398 194.818C65.1051 194.501 64.629 193.869 64.3832 193.107C64.1373 193.91 63.6488 194.588 63.0078 194.924L62.6344 194.445C63.4995 194.034 64.0782 192.958 64.0782 191.925V190.972H64.6757V191.925ZM67.3143 190.506V196.094H66.7293V192.839H65.4847V192.36H66.7293V190.506H67.3143Z" fill="#525252"/>
<path d="M11.8203 207.885H476.529" stroke="#E5E5E5" stroke-width="0.490199" stroke-linecap="round"/>
<path d="M14.6995 219.895L13.7812 220.813" stroke="#262626" stroke-width="0.459127" stroke-linecap="round"/>
<path d="M20.6677 219.895L21.5859 220.813" stroke="#262626" stroke-width="0.459127" stroke-linecap="round"/>
<circle cx="17.6847" cy="223.796" r="3.67301" fill="#FFC117"/>
<path d="M17.6836 221.5V223.761C17.6836 223.784 17.6903 223.806 17.7029 223.825L18.6018 225.173" stroke="#262626" stroke-width="0.459127" stroke-linecap="round"/>
<path d="M25.9701 225.816L25.9638 225.406L27.501 223.788C28.0362 223.221 28.2913 222.916 28.2913 222.499C28.2913 222.039 27.8993 221.734 27.3952 221.734C26.86 221.734 26.5177 222.076 26.5177 222.58H25.9887C25.9825 221.784 26.5986 221.249 27.4138 221.249C28.2291 221.249 28.8141 221.796 28.8141 222.499C28.8141 223.004 28.5776 223.396 27.781 224.217L26.748 225.281V225.319H28.895V225.816H25.9701ZM31.1851 225.879C30.1832 225.879 29.6106 225.039 29.6106 223.564C29.6106 222.101 30.1956 221.249 31.1851 221.249C32.1746 221.249 32.7596 222.101 32.7596 223.564C32.7596 225.039 32.1808 225.879 31.1851 225.879ZM31.1851 225.381C31.8323 225.381 32.212 224.727 32.212 223.564C32.212 222.4 31.8323 221.734 31.1851 221.734C30.5379 221.734 30.1521 222.4 30.1521 223.564C30.1521 224.727 30.5317 225.381 31.1851 225.381ZM33.5064 225.816L33.5002 225.406L35.0373 223.788C35.5725 223.221 35.8277 222.916 35.8277 222.499C35.8277 222.039 35.4356 221.734 34.9315 221.734C34.3963 221.734 34.054 222.076 34.054 222.58H33.5251C33.5188 221.784 34.1349 221.249 34.9502 221.249C35.7654 221.249 36.3504 221.796 36.3504 222.499C36.3504 223.004 36.1139 223.396 35.3173 224.217L34.2843 225.281V225.319H36.4313V225.816H33.5064ZM37.035 224.895V224.435L39.0637 221.311H39.7545V224.404H40.3831V224.895H39.7545V225.816H39.2193V224.895H37.035ZM37.6386 224.404H39.2193V222.02H39.1633L37.6386 224.366V224.404ZM45.511 220.794V224.889H45.0194V222.972H43.4262V222.58H45.0194V221.914H43.4262V221.522H45.0194V220.794H45.511ZM45.6604 225.792V226.202H41.9451V224.541H42.4367V225.792H45.6604ZM41.7459 221.193V223.651C42.5083 223.648 43.2426 223.607 44.0859 223.452L44.1357 223.856C43.2333 224.024 42.4803 224.061 41.6713 224.068H41.2543V221.193H41.7459ZM48.2306 225.816L48.2243 225.406L49.7615 223.788C50.2967 223.221 50.5518 222.916 50.5518 222.499C50.5518 222.039 50.1598 221.734 49.6557 221.734C49.1205 221.734 48.7782 222.076 48.7782 222.58H48.2492C48.243 221.784 48.8591 221.249 49.6743 221.249C50.4896 221.249 51.0746 221.796 51.0746 222.499C51.0746 223.004 50.8381 223.396 50.0415 224.217L49.0085 225.281V225.319H51.1555V225.816H48.2306ZM56.3332 220.794V224.055H55.8416V223.75H54.7214V223.427H55.8416V220.794H56.3332ZM51.7529 222.879C52.8233 222.885 54.1924 222.873 55.3873 222.742L55.4184 223.06C54.877 223.137 54.3138 223.184 53.763 223.209V224.074H53.2838V223.228C52.7611 223.246 52.2601 223.249 51.8089 223.246L51.7529 222.879ZM56.3332 224.254V225.399H53.1033V225.897H56.5137V226.258H52.6242V225.057H55.8478V224.609H52.5993V224.254H56.3332ZM53.5576 220.9C54.3791 220.9 54.9268 221.224 54.933 221.734C54.9268 222.25 54.3791 222.562 53.5576 222.562C52.7237 222.562 52.1823 222.25 52.1823 221.734C52.1823 221.224 52.7237 220.9 53.5576 220.9ZM53.5576 221.242C52.9976 221.242 52.6366 221.435 52.6428 221.734C52.6366 222.026 52.9976 222.226 53.5576 222.226C54.1115 222.226 54.4725 222.026 54.4725 221.734C54.4725 221.435 54.1115 221.242 53.5576 221.242ZM59.0776 225.816L59.0714 225.406L60.6086 223.788C61.1438 223.221 61.3989 222.916 61.3989 222.499C61.3989 222.039 61.0069 221.734 60.5028 221.734C59.9676 221.734 59.6253 222.076 59.6253 222.58H59.0963C59.0901 221.784 59.7062 221.249 60.5214 221.249C61.3367 221.249 61.9217 221.796 61.9217 222.499C61.9217 223.004 61.6852 223.396 60.8886 224.217L59.8556 225.281V225.319H62.0026V225.816H59.0776ZM64.3238 225.879C63.3779 225.879 62.7182 225.356 62.7245 224.622C62.7182 224.037 63.1227 223.557 63.6393 223.476V223.452C63.1912 223.346 62.8987 222.935 62.8987 222.443C62.8987 221.753 63.5024 221.249 64.3238 221.249C65.1453 221.249 65.749 221.753 65.7552 222.443C65.749 222.935 65.4502 223.346 65.0084 223.452V223.476C65.5187 223.557 65.9232 224.037 65.9294 224.622C65.9232 225.356 65.2635 225.879 64.3238 225.879ZM64.3238 225.387C64.971 225.387 65.3693 225.063 65.3693 224.59C65.3693 224.093 64.9275 223.725 64.3238 223.725C63.7202 223.725 63.2721 224.093 63.2846 224.59C63.2721 225.063 63.6766 225.387 64.3238 225.387ZM64.3238 223.252C64.8341 223.252 65.2075 222.941 65.2075 222.487C65.2075 222.039 64.8528 221.734 64.3238 221.734C63.7886 221.734 63.4401 222.039 63.4401 222.487C63.4401 222.941 63.8073 223.252 64.3238 223.252ZM68.0515 220.993C68.8792 221 69.4829 221.497 69.4829 222.219C69.4829 222.941 68.8792 223.439 68.0515 223.439C67.2114 223.439 66.614 222.941 66.614 222.219C66.614 221.497 67.2114 221 68.0515 220.993ZM68.0515 221.404C67.4977 221.404 67.0869 221.74 67.0932 222.219C67.0869 222.705 67.4977 223.041 68.0515 223.041C68.5992 223.041 69.0099 222.705 69.0099 222.219C69.0099 221.74 68.5992 221.404 68.0515 221.404ZM71.0511 220.788V223.632H70.5657V220.788H71.0511ZM71.0511 223.9V225.231H67.9458V225.854H71.2503V226.246H67.4666V224.864H70.5657V224.292H67.4541V223.9H71.0511ZM76.372 221.348V224.914H73.8205V221.348H76.372ZM74.2934 221.74V224.516H75.8866V221.74H74.2934ZM77.8718 220.788V222.997H78.7991V223.42H77.8718V226.32H77.3864V220.788H77.8718ZM83.4229 220.788V222.145H84.2568V222.549H83.4229V223.931H82.9375V220.788H83.4229ZM81.9107 221.149C81.9045 222.543 80.9274 223.539 79.2907 223.987L79.0916 223.595C80.4544 223.228 81.2853 222.49 81.3879 221.553H79.3405V221.149H81.9107ZM83.4229 224.186V226.246H79.9193V224.186H83.4229ZM80.4047 224.59V225.848H82.9375V224.59H80.4047Z" fill="#525252"/>
<circle cx="98.7636" cy="222.346" r="1.4706" fill="#262626"/>
<circle cx="93.8612" cy="222.346" r="1.4706" fill="#262626"/>
<path d="M98.7617 224.307C99.9617 224.307 100.443 225.506 100.623 226.227C100.693 226.508 100.471 226.758 100.181 226.758H99.04C98.8425 226.018 98.461 225.179 97.7227 224.699C97.9883 224.465 98.3275 224.307 98.7617 224.307Z" fill="#262626"/>
<path d="M93.8618 224.307C94.2958 224.307 94.6352 224.465 94.9008 224.699C94.1626 225.179 93.7809 226.018 93.5835 226.758H92.4428C92.1529 226.758 91.931 226.508 92.0014 226.227C92.1819 225.506 92.6622 224.307 93.8618 224.307Z" fill="#262626"/>
<circle cx="96.3124" cy="222.346" r="1.9608" fill="#FFC117"/>
<path d="M96.3104 224.797C98.1284 224.797 98.5979 226.415 98.7191 227.251C98.758 227.519 98.5419 227.738 98.2712 227.738H94.3496C94.0788 227.738 93.8627 227.519 93.9016 227.251C94.0229 226.415 94.4924 224.797 96.3104 224.797Z" fill="#FFC117"/>
<path d="M106.048 225.879C105.233 225.879 104.617 225.375 104.586 224.684H105.127C105.171 225.088 105.563 225.387 106.048 225.387C106.633 225.387 107.056 224.958 107.056 224.391C107.056 223.806 106.614 223.377 106.011 223.371C105.631 223.364 105.339 223.483 105.171 223.775H104.629L104.947 221.311H107.386V221.809H105.413L105.245 223.128H105.289C105.488 222.972 105.793 222.867 106.11 222.867C106.969 222.867 107.604 223.501 107.604 224.379C107.604 225.25 106.944 225.879 106.048 225.879ZM109.994 221.099L108.537 226.495H108.052L109.502 221.099H109.994ZM111.979 225.879C111.164 225.879 110.548 225.375 110.516 224.684H111.058C111.101 225.088 111.493 225.387 111.979 225.387C112.564 225.387 112.987 224.958 112.987 224.391C112.987 223.806 112.545 223.377 111.942 223.371C111.562 223.364 111.269 223.483 111.101 223.775H110.56L110.877 221.311H113.317V221.809H111.344L111.176 223.128H111.22C111.419 222.972 111.724 222.867 112.041 222.867C112.9 222.867 113.535 223.501 113.535 224.379C113.535 225.25 112.875 225.879 111.979 225.879ZM117.598 221.939C117.598 222.618 118.159 223.221 118.974 223.464L118.744 223.85C118.106 223.651 117.608 223.237 117.368 222.705C117.125 223.293 116.612 223.741 115.955 223.956L115.713 223.57C116.534 223.321 117.119 222.68 117.119 221.939V221.84H115.868V221.448H117.119V220.763H117.611V221.448H118.849V221.84H117.598V221.939ZM120.038 220.788V222.194H120.872V222.605H120.038V224.068H119.553V220.788H120.038ZM120.038 224.323V226.246H116.547V224.323H120.038ZM117.026 224.709V225.848H119.553V224.709H117.026ZM122.708 221.217C123.215 221.221 123.626 221.516 123.865 222.026H125.321V220.788H125.807V226.333H125.321V224.186H123.903C123.669 224.746 123.243 225.07 122.708 225.07C121.892 225.07 121.32 224.323 121.32 223.147C121.32 221.97 121.892 221.224 122.708 221.217ZM122.708 221.653C122.16 221.659 121.787 222.244 121.787 223.147C121.787 224.049 122.16 224.634 122.708 224.634C123.249 224.634 123.629 224.049 123.629 223.147C123.629 222.244 123.249 221.659 122.708 221.653ZM124.008 222.437C124.058 222.652 124.089 222.888 124.089 223.147C124.089 223.374 124.064 223.588 124.027 223.781H125.321V222.437H124.008ZM130.014 221.049C130.823 221.049 131.389 221.485 131.389 222.145C131.389 222.714 130.941 223.128 130.275 223.209V223.75C130.792 223.729 131.318 223.682 131.8 223.607L131.837 223.974C130.667 224.186 129.342 224.198 128.383 224.198L128.321 223.794C128.75 223.797 129.255 223.794 129.784 223.775V223.215C129.099 223.14 128.638 222.723 128.645 222.145C128.638 221.485 129.205 221.049 130.014 221.049ZM130.014 221.429C129.479 221.429 129.099 221.715 129.105 222.145C129.099 222.562 129.479 222.848 130.014 222.854C130.555 222.848 130.922 222.562 130.929 222.145C130.922 221.715 130.555 221.429 130.014 221.429ZM132.646 220.794V222.667H133.474V223.084H132.646V225.026H132.155V220.794H132.646ZM132.845 225.785V226.196H129.13V224.659H129.622V225.785H132.845ZM138.901 225.225V225.636H133.835V225.225H135.26V224.173H134.47V222.468H137.78V221.603H134.457V221.199H138.26V222.873H134.955V223.769H138.39V224.173H137.525V225.225H138.901ZM135.739 225.225H137.046V224.173H135.739V225.225Z" fill="#525252"/>
<ellipse cx="324.359" cy="173.119" rx="0.441179" ry="0.441179" transform="rotate(-90 324.359 173.119)" fill="#A3A3A3" stroke="#A3A3A3" stroke-width="0.980398" stroke-linecap="round"/>
<ellipse cx="324.359" cy="176.453" rx="0.441179" ry="0.441179" transform="rotate(-90 324.359 176.453)" fill="#A3A3A3" stroke="#A3A3A3" stroke-width="0.980398" stroke-linecap="round"/>
<ellipse cx="324.359" cy="169.785" rx="0.441179" ry="0.441179" transform="rotate(-90 324.359 169.785)" fill="#A3A3A3" stroke="#A3A3A3" stroke-width="0.980398" stroke-linecap="round"/>
</g>
<rect x="0.544887" y="155.963" width="341.375" height="87.2161" rx="5.39219" stroke="#262626" stroke-width="0.980398"/>
<path d="M0.347656 44.0605H342.409" stroke="#D4D4D4" stroke-width="0.490199" stroke-linecap="round"/>
<path d="M11.9668 28.9355C11.9619 29.8975 12.6797 30.8252 14.0664 31.2109L13.5684 32.0508C12.5527 31.7725 11.835 31.1816 11.4346 30.4248C11.0488 31.2598 10.3115 31.9043 9.26172 32.207L8.74414 31.3672C10.1357 30.9766 10.8828 29.9902 10.8828 28.9355V28.916H9.03711V28.0566H10.8828V27.0801H11.9766V28.0566H13.8125V28.916H11.9668V28.9355ZM10.0527 35.8398V32.6855H15.7559V35.8398H10.0527ZM11.127 34.9609H14.6816V33.5449H11.127V34.9609ZM14.6719 32.3145V27.1191H15.7559V29.248H16.9863V30.1465H15.7559V32.3145H14.6719ZM19.8477 27.7637C20.6436 27.7637 21.3027 28.208 21.6982 28.9844H23.7637V27.1191H24.8379V35.957H23.7637V32.6172H21.7764C21.3906 33.4961 20.6973 34.0039 19.8477 34.0039C18.5195 34.0039 17.5771 32.7979 17.582 30.8789C17.5771 28.9746 18.5195 27.7637 19.8477 27.7637ZM18.627 30.8789C18.6221 32.2363 19.1201 33.0225 19.8477 33.0273C20.5801 33.0225 21.0732 32.2363 21.0781 30.8789C21.0732 29.5312 20.5801 28.7402 19.8477 28.7402C19.1201 28.7402 18.6221 29.5312 18.627 30.8789ZM22.0059 29.873C22.0693 30.1807 22.1035 30.5176 22.1035 30.8789C22.1035 31.1816 22.0791 31.4697 22.0303 31.7383H23.7637V29.873H22.0059ZM34.125 31.1719V32.0508H30.6289V32.793C32.2061 32.8955 33.1436 33.4424 33.1484 34.3555C33.1436 35.3711 31.9912 35.9375 30.0918 35.9375C28.1631 35.9375 27.0156 35.3711 27.0156 34.3555C27.0156 33.4424 27.9531 32.8906 29.5547 32.7881V32.0508H26.0781V31.1719H34.125ZM26.4688 29.9121C28.0898 29.7607 29.1494 29.1016 29.3301 28.3789H26.8105V27.5098H33.4023V28.3789H30.8584C31.0342 29.1064 32.084 29.7607 33.7441 29.9121L33.3633 30.7715C31.7568 30.6055 30.5703 29.9658 30.0918 29.0723C29.6133 29.9658 28.4414 30.6055 26.8398 30.7715L26.4688 29.9121ZM28.1191 34.3555C28.1143 34.8438 28.8076 35.1123 30.0918 35.1074C31.3564 35.1123 32.0547 34.8438 32.0645 34.3555C32.0547 33.8672 31.3564 33.6084 30.0918 33.6035C28.8076 33.6084 28.1143 33.8672 28.1191 34.3555ZM42.0742 27.1289V33.5059H40.9805V27.1289H42.0742ZM34.877 29.9121C34.877 28.6279 35.917 27.71 37.2598 27.7051C38.6025 27.71 39.6377 28.6279 39.6328 29.9121C39.6377 31.2158 38.6025 32.1289 37.2598 32.1289C35.917 32.1289 34.877 31.2158 34.877 29.9121ZM35.9414 29.9121C35.9365 30.6934 36.5029 31.1816 37.2598 31.1816C37.9971 31.1816 38.5684 30.6934 38.5684 29.9121C38.5684 29.1504 37.9971 28.6523 37.2598 28.6523C36.5029 28.6523 35.9365 29.1504 35.9414 29.9121ZM36.2344 35.7715V32.8613H37.3281V34.8926H42.3184V35.7715H36.2344ZM49.8965 28.0078V28.8672H48.4609C48.4756 29.6484 49.0762 30.4395 50.1699 30.8008L49.7012 31.5918C48.8662 31.333 48.2852 30.8057 47.958 30.1611C47.6406 30.8643 47.0596 31.4551 46.2246 31.7578L45.7363 30.9375C46.8154 30.5322 47.4111 29.668 47.4355 28.8672H45.9805V28.0078H47.4355V27.1582H48.4609V28.0078H49.8965ZM47.3086 32.9492V32.1289H53.2852V34.3457H48.4023V35.0293H53.5977V35.8398H47.3184V33.5547H52.2109V32.9492H47.3086ZM50.375 31.7285V27.2949H51.4004V29.0137H52.25V27.1289H53.2852V31.7871H52.25V29.8828H51.4004V31.7285H50.375ZM61.7129 27.1289V33.623H60.6387V27.1289H61.7129ZM54.8281 28.5938V27.7246H58.9004V30.4492H55.9121V31.5625C57.5088 31.5625 58.5635 31.5137 59.7793 31.2891L59.8965 32.1582C58.5635 32.4072 57.4062 32.4512 55.5996 32.4512H54.8477V29.6289H57.8262V28.5938H54.8281ZM55.834 35.7715V33.0957H56.9277V34.8926H61.957V35.7715H55.834ZM66.3516 29.6289C66.3516 31.0742 67.2012 32.5977 68.627 33.1934L68.0312 34.0527C66.9863 33.5986 66.2246 32.6758 65.8193 31.5527C65.4141 32.7637 64.6377 33.7793 63.6074 34.2676L62.9824 33.418C64.374 32.7734 65.2432 31.1279 65.248 29.6289V28.8867H63.3047V27.9883H68.2852V28.8867H66.3516V29.6289ZM69.2715 35.9473V27.1191H70.3652V35.9473H69.2715Z" fill="#262626"/>
<rect y="43.4512" width="80" height="1.4706" fill="#262626"/>
<path d="M94.4863 27.4922C95.7754 27.4922 96.6934 28.21 96.7031 29.2695C96.6934 30.1484 96.0342 30.8076 95.0527 30.9883V31.7012C95.79 31.6572 96.5273 31.5938 97.2109 31.4961L97.2988 32.2871C95.4629 32.6143 93.4121 32.6533 91.918 32.6484L91.8008 31.7793C92.4355 31.7793 93.1777 31.7744 93.959 31.75V30.9932C92.9482 30.8223 92.2744 30.1631 92.2793 29.2695C92.2744 28.21 93.1924 27.4922 94.4863 27.4922ZM93.0117 35.7539V33.2637H94.0957V34.875H99.125V35.7539H93.0117ZM93.2949 29.2695C93.2852 29.8506 93.7832 30.2119 94.4863 30.2168C95.1943 30.2119 95.6729 29.8506 95.6777 29.2695C95.6729 28.6738 95.1943 28.3223 94.4863 28.3223C93.7832 28.3223 93.2852 28.6738 93.2949 29.2695ZM97.7285 33.8594V27.1211H98.8125V29.9727H100.004V30.8711H98.8125V33.8594H97.7285ZM108.529 34.0156V34.9141H100.463V34.0156H102.602V32.5605H101.42V29.6797H106.498V28.5957H101.4V27.7168H107.572V30.5488H102.504V31.6816H107.777V32.5605H106.488V34.0156H108.529ZM103.656 34.0156H105.424V32.5605H103.656V34.0156ZM116.068 27.1211V29.8945H117.299V30.793H116.068V33.7129H114.984V27.1211H116.068ZM109.115 28.9668V28.0977H111.195V27.1113H112.279V28.0977H114.35V28.9668H109.115ZM109.564 31.0176C109.564 30.002 110.448 29.3281 111.732 29.3281C113.007 29.3281 113.886 30.002 113.891 31.0176C113.886 32.0283 113.007 32.6875 111.732 32.6875C110.448 32.6875 109.564 32.0283 109.564 31.0176ZM110.414 35.7637V33.1953H111.498V34.8848H116.42V35.7637H110.414ZM110.619 31.0176C110.614 31.5498 111.063 31.8525 111.732 31.8477C112.401 31.8525 112.855 31.5498 112.855 31.0176C112.855 30.4805 112.401 30.168 111.732 30.168C111.063 30.168 110.614 30.4805 110.619 31.0176ZM124.281 28V28.8594H122.846C122.86 29.6406 123.461 30.4316 124.555 30.793L124.086 31.584C123.251 31.3252 122.67 30.7979 122.343 30.1533C122.025 30.8564 121.444 31.4473 120.609 31.75L120.121 30.9297C121.2 30.5244 121.796 29.6602 121.82 28.8594H120.365V28H121.82V27.1504H122.846V28H124.281ZM121.693 32.9414V32.1211H127.67V34.3379H122.787V35.0215H127.982V35.832H121.703V33.5469H126.596V32.9414H121.693ZM124.76 31.7207V27.2871H125.785V29.0059H126.635V27.1211H127.67V31.7793H126.635V29.875H125.785V31.7207H124.76ZM136.098 27.1211V33.6152H135.023V27.1211H136.098ZM129.213 28.5859V27.7168H133.285V30.4414H130.297V31.5547C131.894 31.5547 132.948 31.5059 134.164 31.2812L134.281 32.1504C132.948 32.3994 131.791 32.4434 129.984 32.4434H129.232V29.6211H132.211V28.5859H129.213ZM130.219 35.7637V33.0879H131.312V34.8848H136.342V35.7637H130.219ZM140.736 29.6211C140.736 31.0664 141.586 32.5898 143.012 33.1855L142.416 34.0449C141.371 33.5908 140.609 32.668 140.204 31.5449C139.799 32.7559 139.022 33.7715 137.992 34.2598L137.367 33.4102C138.759 32.7656 139.628 31.1201 139.633 29.6211V28.8789H137.689V27.9805H142.67V28.8789H140.736V29.6211ZM143.656 35.9395V27.1113H144.75V35.9395H143.656Z" fill="#737373"/>
<path d="M177.701 27.1211V33.5664H176.607V27.1211H177.701ZM170.357 31.4863C171.788 30.9834 172.521 29.7383 172.516 28.4688V27.6094H173.639V28.4688C173.634 29.6992 174.356 30.8613 175.758 31.3301L175.201 32.1895C174.195 31.8379 173.478 31.1348 173.087 30.2314C172.696 31.1982 171.964 31.9697 170.924 32.3457L170.357 31.4863ZM171.861 35.7637V32.9512H172.955V34.8848H177.945V35.7637H171.861ZM182.164 28.9961C182.159 29.9629 182.916 30.915 184.303 31.291L183.795 32.1309C182.779 31.8525 182.047 31.2617 181.642 30.4951C181.256 31.3594 180.523 32.043 179.469 32.3555L178.961 31.5156C180.343 31.0957 181.08 30.0605 181.08 28.9961V28.9473H179.234V28.0879H181.08V27.0723H182.174V28.0879H184.01V28.9473H182.164V28.9961ZM180.396 34.2695C180.387 33.2197 181.539 32.6289 183.395 32.6289C185.26 32.6289 186.407 33.2197 186.412 34.2695C186.407 35.3193 185.26 35.9297 183.395 35.9297C181.539 35.9297 180.387 35.3193 180.396 34.2695ZM181.471 34.2695C181.466 34.792 182.169 35.0898 183.395 35.0898C184.645 35.0898 185.328 34.792 185.328 34.2695C185.328 33.7422 184.645 33.4639 183.395 33.459C182.169 33.4639 181.466 33.7422 181.471 34.2695ZM183.746 30.4121V29.5332H185.299V27.1113H186.383V32.4531H185.299V30.4121H183.746ZM194.596 27.1211V29.8945H195.826V30.793H194.596V33.7129H193.512V27.1211H194.596ZM187.643 28.9668V28.0977H189.723V27.1113H190.807V28.0977H192.877V28.9668H187.643ZM188.092 31.0176C188.092 30.002 188.976 29.3281 190.26 29.3281C191.534 29.3281 192.413 30.002 192.418 31.0176C192.413 32.0283 191.534 32.6875 190.26 32.6875C188.976 32.6875 188.092 32.0283 188.092 31.0176ZM188.941 35.7637V33.1953H190.025V34.8848H194.947V35.7637H188.941ZM189.146 31.0176C189.142 31.5498 189.591 31.8525 190.26 31.8477C190.929 31.8525 191.383 31.5498 191.383 31.0176C191.383 30.4805 190.929 30.168 190.26 30.168C189.591 30.168 189.142 30.4805 189.146 31.0176ZM202.809 28V28.8594H201.373C201.388 29.6406 201.988 30.4316 203.082 30.793L202.613 31.584C201.778 31.3252 201.197 30.7979 200.87 30.1533C200.553 30.8564 199.972 31.4473 199.137 31.75L198.648 30.9297C199.728 30.5244 200.323 29.6602 200.348 28.8594H198.893V28H200.348V27.1504H201.373V28H202.809ZM200.221 32.9414V32.1211H206.197V34.3379H201.314V35.0215H206.51V35.832H200.23V33.5469H205.123V32.9414H200.221ZM203.287 31.7207V27.2871H204.312V29.0059H205.162V27.1211H206.197V31.7793H205.162V29.875H204.312V31.7207H203.287ZM214.625 27.1211V33.6152H213.551V27.1211H214.625ZM207.74 28.5859V27.7168H211.812V30.4414H208.824V31.5547C210.421 31.5547 211.476 31.5059 212.691 31.2812L212.809 32.1504C211.476 32.3994 210.318 32.4434 208.512 32.4434H207.76V29.6211H210.738V28.5859H207.74ZM208.746 35.7637V33.0879H209.84V34.8848H214.869V35.7637H208.746ZM219.264 29.6211C219.264 31.0664 220.113 32.5898 221.539 33.1855L220.943 34.0449C219.898 33.5908 219.137 32.668 218.731 31.5449C218.326 32.7559 217.55 33.7715 216.52 34.2598L215.895 33.4102C217.286 32.7656 218.155 31.1201 218.16 29.6211V28.8789H216.217V27.9805H221.197V28.8789H219.264V29.6211ZM222.184 35.9395V27.1113H223.277V35.9395H222.184Z" fill="#737373"/>
<defs>
<clipPath id="clip0_4711_59116">
<rect x="0.0546875" y="59.1895" width="342.355" height="88.1965" rx="5.88239" fill="white"/>
</clipPath>
<clipPath id="clip1_4711_59116">
<rect x="0.0546875" y="155.473" width="342.355" height="88.1965" rx="5.88239" fill="white"/>
</clipPath>
</defs>
</svg>
