<svg width="570" height="411" viewBox="0 0 570 411" fill="none" xmlns="http://www.w3.org/2000/svg">
<g clip-path="url(#clip0_4711_59211)">
<rect x="31" y="88" width="508" height="130.741" rx="8.72852" fill="white"/>
<path d="M49.004 110.846V109.143H58.0209V110.846H54.536V120.457H52.5045V110.846H49.004ZM57.974 118.066C57.974 116.16 59.5524 115.597 61.1307 115.503C61.7167 115.464 62.9357 115.394 63.3029 115.378V114.706C63.3029 113.862 62.756 113.378 61.7714 113.378C60.8807 113.378 60.3337 113.784 60.1775 114.394H58.2553C58.396 112.956 59.693 111.862 61.8183 111.862C63.4279 111.862 65.2876 112.518 65.2876 114.784V120.457H63.381V119.285H63.3185C62.9435 120.004 62.1465 120.629 60.8182 120.629C59.1929 120.629 57.974 119.738 57.974 118.066ZM59.8962 118.05C59.8962 118.785 60.49 119.16 61.3339 119.16C62.5372 119.16 63.3185 118.363 63.3185 117.41V116.706C62.9513 116.73 61.8418 116.808 61.4433 116.832C60.49 116.91 59.8962 117.3 59.8962 118.05ZM69.1631 115.488V120.457H67.1628V111.971H69.0694V113.409H69.1787C69.5694 112.456 70.4289 111.862 71.6947 111.862C73.4606 111.862 74.617 113.018 74.6014 115.05V120.457H72.6167V115.363C72.6167 114.222 72.0073 113.55 70.9603 113.55C69.8976 113.55 69.1631 114.253 69.1631 115.488ZM82.7588 112.253C82.6651 111.284 81.8368 110.721 80.6179 110.721C79.3365 110.721 78.5551 111.346 78.5551 112.19C78.5551 113.143 79.5552 113.534 80.4929 113.753L81.5555 114.034C83.2433 114.425 84.8685 115.316 84.8685 117.285C84.8685 119.269 83.3058 120.629 80.5866 120.629C77.9456 120.629 76.2891 119.363 76.1954 117.128H78.1957C78.2894 118.316 79.2896 118.894 80.571 118.894C81.9149 118.894 82.837 118.238 82.837 117.269C82.837 116.378 82.0087 116.003 80.7898 115.691L79.5084 115.363C77.6487 114.878 76.4923 113.94 76.4923 112.315C76.4923 110.315 78.2738 108.987 80.6491 108.987C83.0557 108.987 84.681 110.346 84.7122 112.253H82.7588ZM90.6975 111.971V113.503H89.0253V117.91C89.0253 118.722 89.4316 118.894 89.9317 118.894C90.1661 118.894 90.5568 118.879 90.8068 118.863V120.488C90.5724 120.535 90.1818 120.566 89.6817 120.566C88.1815 120.566 87.0251 119.832 87.0407 118.238V113.503H85.8218V111.971H87.0407V109.94H89.0253V111.971H90.6975ZM91.8382 118.066C91.8382 116.16 93.4166 115.597 94.9949 115.503C95.581 115.464 96.7999 115.394 97.1671 115.378V114.706C97.1671 113.862 96.6202 113.378 95.6357 113.378C94.7449 113.378 94.198 113.784 94.0417 114.394H92.1195C92.2602 112.956 93.5572 111.862 95.6825 111.862C97.2921 111.862 99.1518 112.518 99.1518 114.784V120.457H97.2453V119.285H97.1828C96.8077 120.004 96.0107 120.629 94.6824 120.629C93.0572 120.629 91.8382 119.738 91.8382 118.066ZM93.7604 118.05C93.7604 118.785 94.3542 119.16 95.1981 119.16C96.4014 119.16 97.1828 118.363 97.1828 117.41V116.706C96.8155 116.73 95.706 116.808 95.3075 116.832C94.3542 116.91 93.7604 117.3 93.7604 118.05ZM104.731 120.629C102.199 120.629 100.668 118.816 100.668 116.253C100.668 113.659 102.246 111.862 104.731 111.862C106.794 111.862 108.231 113.065 108.372 114.894H106.465C106.309 114.081 105.715 113.456 104.746 113.456C103.512 113.456 102.684 114.503 102.684 116.206C102.684 117.957 103.496 119.004 104.746 119.004C105.637 119.004 106.293 118.488 106.465 117.566H108.372C108.216 119.363 106.856 120.629 104.731 120.629ZM109.872 120.457V109.143H111.872V115.378H112.013L115.06 111.971H117.389L114.107 115.628L117.592 120.457H115.217L112.607 116.816L111.872 117.597V120.457H109.872ZM126.671 116.66H128.531L129.5 117.925C130.133 117.253 130.516 116.199 130.516 114.8C130.516 112.221 129.219 110.815 127.375 110.815C125.531 110.815 124.234 112.221 124.234 114.8C124.234 117.378 125.531 118.785 127.375 118.785C127.671 118.785 127.953 118.746 128.218 118.676L126.671 116.66ZM132.563 114.8C132.563 116.855 131.86 118.433 130.734 119.426L132.297 121.442H130.312L129.375 120.238C128.765 120.488 128.093 120.613 127.375 120.613C124.405 120.613 122.186 118.441 122.186 114.8C122.186 111.143 124.405 108.987 127.375 108.987C130.344 108.987 132.563 111.143 132.563 114.8ZM139.72 116.894V111.971H141.705V120.457H139.783V118.957H139.689C139.298 119.894 138.407 120.566 137.142 120.566C135.469 120.566 134.313 119.41 134.297 117.378V111.971H136.298V117.066C136.298 118.144 136.938 118.832 137.907 118.832C138.782 118.832 139.72 118.191 139.72 116.894ZM147.377 120.629C144.815 120.629 143.252 118.926 143.252 116.269C143.252 113.644 144.846 111.862 147.268 111.862C149.346 111.862 151.144 113.159 151.144 116.144V116.769H145.221C145.244 118.215 146.096 119.066 147.393 119.066C148.268 119.066 148.862 118.691 149.112 118.191H151.065C150.706 119.66 149.346 120.629 147.377 120.629ZM145.237 115.409H149.237C149.221 114.253 148.456 113.409 147.299 113.409C146.096 113.409 145.299 114.323 145.237 115.409ZM152.691 120.457V111.971H154.628V113.378H154.722C155.019 112.409 155.847 111.846 156.816 111.846C157.035 111.846 157.348 111.862 157.535 111.893V113.737C157.363 113.675 156.941 113.612 156.613 113.612C155.504 113.612 154.691 114.378 154.691 115.456V120.457H152.691ZM160.192 123.645C159.801 123.645 159.41 123.629 159.16 123.598V122.004C159.41 122.02 159.739 122.035 160.004 122.035C160.489 122.035 160.895 121.989 161.239 121.082L161.411 120.629L158.317 111.971H160.426L162.395 118.379H162.489L164.458 111.971H166.568L163.161 121.488C162.677 122.848 161.786 123.645 160.192 123.645ZM176.757 113.987V115.628H171.662V113.987H176.757ZM192.696 114.8C192.696 118.457 190.477 120.613 187.508 120.613C184.539 120.613 182.32 118.441 182.32 114.8C182.32 111.143 184.539 108.987 187.508 108.987C190.477 108.987 192.696 111.143 192.696 114.8ZM190.649 114.8C190.649 112.221 189.352 110.815 187.508 110.815C185.664 110.815 184.367 112.221 184.367 114.8C184.367 117.378 185.664 118.785 187.508 118.785C189.352 118.785 190.649 117.378 190.649 114.8ZM194.415 123.645V111.971H196.369V113.362H196.494C196.806 112.753 197.431 111.862 198.932 111.862C200.885 111.862 202.432 113.394 202.432 116.222C202.432 119.019 200.932 120.613 198.932 120.613C197.463 120.613 196.806 119.738 196.494 119.113H196.416V123.645H194.415ZM196.369 116.206C196.369 117.863 197.088 118.972 198.385 118.972C199.697 118.972 200.401 117.816 200.401 116.206C200.401 114.628 199.713 113.487 198.385 113.487C197.088 113.487 196.369 114.566 196.369 116.206ZM208.23 111.971V113.503H206.558V117.91C206.558 118.722 206.964 118.894 207.464 118.894C207.699 118.894 208.089 118.879 208.339 118.863V120.488C208.105 120.535 207.714 120.566 207.214 120.566C205.714 120.566 204.557 119.832 204.573 118.238V113.503H203.354V111.971H204.573V109.94H206.558V111.971H208.23ZM209.761 120.457V111.971H211.762V120.457H209.761ZM210.777 110.768C210.152 110.768 209.621 110.284 209.621 109.674C209.621 109.08 210.152 108.596 210.777 108.596C211.418 108.596 211.934 109.08 211.934 109.674C211.934 110.284 211.418 110.768 210.777 110.768ZM213.668 120.457V111.971H215.575V113.409H215.684C216.028 112.44 216.887 111.862 218.013 111.862C219.169 111.862 219.982 112.44 220.31 113.409H220.404C220.779 112.472 221.716 111.862 222.951 111.862C224.498 111.862 225.592 112.862 225.592 114.753V120.457H223.607V115.066C223.607 114.003 222.966 113.534 222.154 113.534C221.169 113.534 220.607 114.206 220.607 115.159V120.457H218.669V114.987C218.669 114.112 218.075 113.534 217.231 113.534C216.372 113.534 215.668 114.237 215.668 115.3V120.457H213.668ZM227.498 120.457V111.971H229.499V120.457H227.498ZM228.514 110.768C227.889 110.768 227.358 110.284 227.358 109.674C227.358 109.08 227.889 108.596 228.514 108.596C229.155 108.596 229.67 109.08 229.67 109.674C229.67 110.284 229.155 110.768 228.514 110.768ZM236.218 114.394C236.093 113.753 235.562 113.347 234.718 113.347C233.859 113.347 233.233 113.769 233.249 114.347C233.233 114.784 233.593 115.113 234.452 115.316L235.89 115.613C237.5 115.972 238.265 116.706 238.281 117.925C238.265 119.519 236.875 120.629 234.656 120.629C232.499 120.629 231.218 119.66 231.014 118.035H233.046C233.171 118.754 233.734 119.113 234.656 119.113C235.609 119.113 236.25 118.722 236.25 118.097C236.25 117.613 235.859 117.3 235.015 117.113L233.655 116.816C232.077 116.503 231.264 115.675 231.264 114.456C231.264 112.893 232.608 111.862 234.687 111.862C236.718 111.862 237.969 112.847 238.109 114.394H236.218ZM244.032 111.971V113.503H242.36V117.91C242.36 118.722 242.766 118.894 243.266 118.894C243.501 118.894 243.891 118.879 244.141 118.863V120.488C243.907 120.535 243.516 120.566 243.016 120.566C241.516 120.566 240.36 119.832 240.375 118.238V113.503H239.156V111.971H240.375V109.94H242.36V111.971H244.032ZM245.563 120.457V111.971H247.564V120.457H245.563ZM246.579 110.768C245.954 110.768 245.423 110.284 245.423 109.674C245.423 109.08 245.954 108.596 246.579 108.596C247.22 108.596 247.736 109.08 247.736 109.674C247.736 110.284 247.22 110.768 246.579 110.768ZM253.174 120.629C250.642 120.629 249.111 118.816 249.111 116.253C249.111 113.659 250.689 111.862 253.174 111.862C255.237 111.862 256.674 113.065 256.815 114.894H254.908C254.752 114.081 254.158 113.456 253.189 113.456C251.955 113.456 251.127 114.503 251.127 116.206C251.127 117.957 251.939 119.004 253.189 119.004C254.08 119.004 254.737 118.488 254.908 117.566H256.815C256.659 119.363 255.299 120.629 253.174 120.629ZM269.348 109.143H271.395V116.535C271.395 118.957 269.551 120.629 266.801 120.629C264.035 120.629 262.206 118.957 262.206 116.535V109.143H264.238V116.363C264.238 117.785 265.238 118.816 266.801 118.816C268.364 118.816 269.348 117.785 269.348 116.363V109.143ZM273.395 123.645V111.971H275.349V113.362H275.474C275.786 112.753 276.412 111.862 277.912 111.862C279.865 111.862 281.412 113.394 281.412 116.222C281.412 119.019 279.912 120.613 277.912 120.613C276.443 120.613 275.786 119.738 275.474 119.113H275.396V123.645H273.395ZM275.349 116.206C275.349 117.863 276.068 118.972 277.365 118.972C278.677 118.972 279.381 117.816 279.381 116.206C279.381 114.628 278.693 113.487 277.365 113.487C276.068 113.487 275.349 114.566 275.349 116.206ZM286.132 120.613C284.131 120.613 282.631 119.019 282.631 116.222C282.631 113.394 284.178 111.862 286.147 111.862C287.648 111.862 288.273 112.753 288.57 113.362H288.648V109.143H290.632V120.457H288.679V119.113H288.57C288.257 119.738 287.601 120.613 286.132 120.613ZM286.679 118.972C287.96 118.972 288.695 117.863 288.695 116.206C288.695 114.566 287.976 113.487 286.679 113.487C285.35 113.487 284.663 114.628 284.663 116.206C284.663 117.816 285.366 118.972 286.679 118.972ZM292.258 118.066C292.258 116.16 293.836 115.597 295.414 115.503C296 115.464 297.219 115.394 297.586 115.378V114.706C297.586 113.862 297.039 113.378 296.055 113.378C295.164 113.378 294.617 113.784 294.461 114.394H292.539C292.679 112.956 293.977 111.862 296.102 111.862C297.711 111.862 299.571 112.518 299.571 114.784V120.457H297.665V119.285H297.602C297.227 120.004 296.43 120.629 295.102 120.629C293.476 120.629 292.258 119.738 292.258 118.066ZM294.18 118.05C294.18 118.785 294.774 119.16 295.617 119.16C296.821 119.16 297.602 118.363 297.602 117.41V116.706C297.235 116.73 296.125 116.808 295.727 116.832C294.774 116.91 294.18 117.3 294.18 118.05ZM305.681 111.971V113.503H304.009V117.91C304.009 118.722 304.416 118.894 304.916 118.894C305.15 118.894 305.541 118.879 305.791 118.863V120.488C305.556 120.535 305.166 120.566 304.666 120.566C303.165 120.566 302.009 119.832 302.025 118.238V113.503H300.806V111.971H302.025V109.94H304.009V111.971H305.681ZM310.885 120.629C308.322 120.629 306.76 118.926 306.76 116.269C306.76 113.644 308.354 111.862 310.776 111.862C312.854 111.862 314.651 113.159 314.651 116.144V116.769H308.729C308.752 118.215 309.604 119.066 310.901 119.066C311.776 119.066 312.37 118.691 312.62 118.191H314.573C314.214 119.66 312.854 120.629 310.885 120.629ZM308.744 115.409H312.745C312.729 114.253 311.964 113.409 310.807 113.409C309.604 113.409 308.807 114.323 308.744 115.409ZM321.012 114.394C320.887 113.753 320.355 113.347 319.511 113.347C318.652 113.347 318.027 113.769 318.043 114.347C318.027 114.784 318.386 115.113 319.246 115.316L320.684 115.613C322.293 115.972 323.059 116.706 323.074 117.925C323.059 119.519 321.668 120.629 319.449 120.629C317.292 120.629 316.011 119.66 315.808 118.035H317.839C317.964 118.754 318.527 119.113 319.449 119.113C320.402 119.113 321.043 118.722 321.043 118.097C321.043 117.613 320.652 117.3 319.808 117.113L318.449 116.816C316.87 116.503 316.058 115.675 316.058 114.456C316.058 112.893 317.402 111.862 319.48 111.862C321.512 111.862 322.762 112.847 322.903 114.394H321.012Z" fill="#404040"/>
<rect x="48.457" y="134.641" width="70.457" height="19.3643" rx="5.81902" fill="#F66E6B"/>
<path d="M64.051 147.822V143.118H64.0307L62.4217 147.822H61.0673L59.4482 143.056H59.4278V147.822H58.0531V140.694H59.9472L61.7394 145.938H61.7598L63.5419 140.694H65.4258V147.822H64.051ZM71.5821 147.191L70.4009 147.873H68.2318L67.0506 147.191V143.362L68.2318 142.68H70.4009L71.5821 143.362V147.191ZM68.4457 143.871V146.682H70.187V143.871H68.4457ZM74.2881 142.68H75.6221L76.3451 143.097V140.388H77.7402V147.873H76.5895L76.3451 147.456L75.6221 147.873H74.2881L73.1068 147.191V143.362L74.2881 142.68ZM76.3451 146.682V143.871H74.5019V146.682H76.3451ZM83.4985 146.631V147.822H80.4537L79.2725 147.14V143.362L80.4537 142.68H82.3173L83.4985 143.362V145.796H80.6676V146.631H83.4985ZM80.6676 143.871V144.747H82.1034V143.871H80.6676ZM88.177 143.922H86.4255V147.822H85.0304V142.731H86.1811L86.4255 143.148L87.1485 142.731H88.177V143.922ZM93.7288 143.362V147.822H92.3336V143.871H90.5923V147.822H89.1972V142.68H90.3479L90.5923 143.097L91.3153 142.68H92.5475L93.7288 143.362ZM100.394 146.651V140.694H101.819V147.191L100.638 147.873H98.469L97.2877 147.191V145.226H98.7134V146.651H100.394ZM103.55 144.207V141.325L104.731 140.643H107.307L108.489 141.325V142.68H107.063V141.865H104.975V143.566H107.307L108.489 144.248V147.191L107.307 147.873H104.629L103.448 147.191V145.837H104.873V146.651H107.063V144.889H104.731L103.55 144.207Z" fill="#525252"/>
<rect x="125.098" y="135.004" width="42.4559" height="17.5464" rx="5.45533" fill="white"/>
<rect x="125.098" y="135.004" width="42.4559" height="17.5464" rx="5.45533" stroke="#D4D4D4" stroke-width="0.727377"/>
<path d="M133.86 144.987C135.651 144.987 136.778 145.551 136.787 146.52C136.778 147.48 135.651 148.053 133.86 148.044C132.087 148.053 130.951 147.48 130.951 146.52C130.951 145.551 132.087 144.987 133.86 144.987ZM133.86 145.652C132.604 145.652 131.819 145.975 131.828 146.52C131.819 147.056 132.604 147.37 133.86 147.37C135.125 147.37 135.91 147.056 135.919 146.52C135.91 145.975 135.125 145.652 133.86 145.652ZM136.722 140.195V140.887C136.722 141.552 136.722 142.235 136.491 143.085L135.633 142.993C135.854 142.148 135.854 141.538 135.854 140.896H131.015V140.195H136.722ZM137.664 143.593V144.304H130.138V143.593H133.158V142.042H134.017V143.593H137.664ZM141.312 140.98C141.302 142.125 142.087 143.168 143.362 143.593L142.918 144.285C141.963 143.948 141.242 143.274 140.868 142.411C140.499 143.339 139.774 144.073 138.791 144.424L138.347 143.741C139.64 143.279 140.416 142.162 140.416 140.98V140.185H141.312V140.98ZM145.162 145.153V148.062H144.285V145.864H139.557V145.153H145.162ZM145.162 139.788V144.756H144.285V139.788H145.162ZM154.036 143.971V144.683H150.749V146.289H149.881V144.683H146.464V143.971H154.036ZM153.058 140.176V143.113H147.434V140.176H153.058ZM148.293 140.869V142.42H152.19V140.869H148.293ZM153.196 147.176V147.887H147.406V145.504H148.284V147.176H153.196ZM157.629 141.894C157.629 143.408 158.478 144.913 159.743 145.486L159.208 146.188C158.266 145.717 157.559 144.779 157.195 143.648C156.83 144.839 156.105 145.846 155.154 146.345L154.6 145.634C155.883 145.024 156.742 143.427 156.742 141.894V140.481H157.629V141.894ZM161.544 139.788V148.081H160.676V143.251H158.829V142.54H160.676V139.788H161.544Z" fill="#525252"/>
<path d="M48.457 165.643H738.01" stroke="#E5E5E5" stroke-width="0.727377" stroke-linecap="round"/>
<path d="M52.7297 183.463L51.3672 184.825" stroke="#262626" stroke-width="0.68127" stroke-linecap="round"/>
<path d="M61.5867 183.463L62.9492 184.825" stroke="#262626" stroke-width="0.68127" stroke-linecap="round"/>
<circle cx="57.1572" cy="189.255" r="5.45016" fill="#FFC117"/>
<path d="M57.1562 185.848V189.202C57.1562 189.236 57.1662 189.269 57.1849 189.297L58.5188 191.298" stroke="#262626" stroke-width="0.68127" stroke-linecap="round"/>
<path d="M69.4521 192.783L69.4429 192.174L71.7238 189.773C72.5179 188.933 72.8965 188.48 72.8965 187.861C72.8965 187.178 72.3148 186.726 71.5668 186.726C70.7727 186.726 70.2648 187.233 70.2648 187.981H69.4799C69.4706 186.799 70.3848 186.005 71.5945 186.005C72.8042 186.005 73.6722 186.818 73.6722 187.861C73.6722 188.609 73.3213 189.191 72.1393 190.41L70.6064 191.989V192.044H73.7923V192.783H69.4521ZM77.1905 192.876C75.7038 192.876 74.8542 191.629 74.8542 189.44C74.8542 187.27 75.7222 186.005 77.1905 186.005C78.6587 186.005 79.5267 187.27 79.5267 189.44C79.5267 191.629 78.668 192.876 77.1905 192.876ZM77.1905 192.137C78.1508 192.137 78.7141 191.167 78.7141 189.44C78.7141 187.714 78.1508 186.726 77.1905 186.726C76.2301 186.726 75.6576 187.714 75.6576 189.44C75.6576 191.167 76.2209 192.137 77.1905 192.137ZM80.6349 192.783L80.6256 192.174L82.9065 189.773C83.7006 188.933 84.0792 188.48 84.0792 187.861C84.0792 187.178 83.4975 186.726 82.7495 186.726C81.9554 186.726 81.4475 187.233 81.4475 187.981H80.6626C80.6533 186.799 81.5675 186.005 82.7772 186.005C83.9869 186.005 84.8549 186.818 84.8549 187.861C84.8549 188.609 84.504 189.191 83.322 190.41L81.7891 191.989V192.044H84.975V192.783H80.6349ZM85.8707 191.417V190.733L88.8811 186.098H89.9061V190.687H90.8387V191.417H89.9061V192.783H89.1119V191.417H85.8707ZM86.7664 190.687H89.1119V187.15H89.0288L86.7664 190.632V190.687ZM98.4478 185.331V191.407H97.7183V188.563H95.3543V187.981H97.7183V186.993H95.3543V186.412H97.7183V185.331H98.4478ZM98.6694 192.746V193.356H93.1565V190.89H93.886V192.746H98.6694ZM92.861 185.922V189.57C93.9922 189.565 95.0819 189.505 96.3331 189.274L96.407 189.874C95.068 190.124 93.9507 190.179 92.7502 190.188H92.1315V185.922H92.861ZM102.483 192.783L102.474 192.174L104.755 189.773C105.549 188.933 105.928 188.48 105.928 187.861C105.928 187.178 105.346 186.726 104.598 186.726C103.804 186.726 103.296 187.233 103.296 187.981H102.511C102.502 186.799 103.416 186.005 104.626 186.005C105.835 186.005 106.703 186.818 106.703 187.861C106.703 188.609 106.352 189.191 105.17 190.41L103.637 191.989V192.044H106.823V192.783H102.483ZM114.506 185.331V190.17H113.777V189.717H112.115V189.237H113.777V185.331H114.506ZM107.71 188.425C109.298 188.434 111.33 188.415 113.103 188.221L113.149 188.692C112.345 188.808 111.51 188.877 110.692 188.914V190.198H109.981V188.942C109.206 188.969 108.462 188.974 107.793 188.969L107.71 188.425ZM114.506 190.465V192.165H109.714V192.903H114.774V193.439H109.003V191.657H113.786V190.992H108.966V190.465H114.506ZM110.388 185.488C111.607 185.488 112.419 185.968 112.428 186.726C112.419 187.492 111.607 187.954 110.388 187.954C109.15 187.954 108.347 187.492 108.347 186.726C108.347 185.968 109.15 185.488 110.388 185.488ZM110.388 185.996C109.557 185.996 109.021 186.282 109.03 186.726C109.021 187.16 109.557 187.455 110.388 187.455C111.21 187.455 111.745 187.16 111.745 186.726C111.745 186.282 111.21 185.996 110.388 185.996ZM118.578 192.783L118.569 192.174L120.85 189.773C121.644 188.933 122.023 188.48 122.023 187.861C122.023 187.178 121.441 186.726 120.693 186.726C119.899 186.726 119.391 187.233 119.391 187.981H118.606C118.597 186.799 119.511 186.005 120.721 186.005C121.931 186.005 122.799 186.818 122.799 187.861C122.799 188.609 122.448 189.191 121.266 190.41L119.733 191.989V192.044H122.919V192.783H118.578ZM126.363 192.876C124.959 192.876 123.981 192.1 123.99 191.01C123.981 190.142 124.581 189.431 125.347 189.311V189.274C124.682 189.117 124.248 188.508 124.248 187.778C124.248 186.753 125.144 186.005 126.363 186.005C127.582 186.005 128.478 186.753 128.487 187.778C128.478 188.508 128.034 189.117 127.379 189.274V189.311C128.136 189.431 128.736 190.142 128.745 191.01C128.736 192.1 127.757 192.876 126.363 192.876ZM126.363 192.146C127.323 192.146 127.914 191.666 127.914 190.964C127.914 190.225 127.259 189.68 126.363 189.68C125.467 189.68 124.802 190.225 124.821 190.964C124.802 191.666 125.403 192.146 126.363 192.146ZM126.363 188.979C127.12 188.979 127.674 188.517 127.674 187.843C127.674 187.178 127.148 186.726 126.363 186.726C125.569 186.726 125.052 187.178 125.052 187.843C125.052 188.517 125.597 188.979 126.363 188.979ZM131.894 185.627C133.122 185.636 134.018 186.375 134.018 187.446C134.018 188.517 133.122 189.256 131.894 189.256C130.648 189.256 129.761 188.517 129.761 187.446C129.761 186.375 130.648 185.636 131.894 185.627ZM131.894 186.236C131.072 186.236 130.463 186.735 130.472 187.446C130.463 188.166 131.072 188.665 131.894 188.665C132.707 188.665 133.316 188.166 133.316 187.446C133.316 186.735 132.707 186.236 131.894 186.236ZM136.345 185.322V189.542H135.625V185.322H136.345ZM136.345 189.939V191.915H131.737V192.839H136.641V193.42H131.026V191.37H135.625V190.521H131.008V189.939H136.345ZM144.241 186.153V191.444H140.455V186.153H144.241ZM141.156 186.735V190.853H143.52V186.735H141.156ZM146.466 185.322V188.6H147.842V189.228H146.466V193.531H145.746V185.322H146.466ZM154.703 185.322V187.335H155.94V187.935H154.703V189.985H153.983V185.322H154.703ZM152.459 185.857C152.45 187.926 151 189.403 148.571 190.068L148.276 189.487C150.298 188.942 151.531 187.847 151.683 186.458H148.645V185.857H152.459ZM154.703 190.364V193.42H149.504V190.364H154.703ZM150.224 190.964V192.829H153.983V190.964H150.224Z" fill="#525252"/>
<circle cx="177.917" cy="187.1" r="2.18213" fill="#262626"/>
<circle cx="170.643" cy="187.1" r="2.18213" fill="#262626"/>
<path d="M177.917 190.01C179.697 190.01 180.411 191.789 180.679 192.858C180.783 193.276 180.453 193.647 180.022 193.647H178.33C178.037 192.55 177.471 191.305 176.375 190.593C176.769 190.245 177.273 190.01 177.917 190.01Z" fill="#262626"/>
<path d="M170.644 190.01C171.288 190.01 171.79 190.245 172.185 190.593C171.089 191.305 170.523 192.55 170.23 193.647H168.538C168.108 193.647 167.778 193.276 167.883 192.858C168.151 191.789 168.863 190.01 170.644 190.01Z" fill="#262626"/>
<circle cx="174.281" cy="187.101" r="2.90951" fill="#FFC117"/>
<path d="M174.278 190.738C176.975 190.738 177.672 193.139 177.852 194.38C177.909 194.777 177.589 195.103 177.187 195.103H171.368C170.966 195.103 170.646 194.777 170.703 194.38C170.883 193.139 171.58 190.738 174.278 190.738Z" fill="#FFC117"/>
<path d="M188.725 192.876C187.515 192.876 186.601 192.128 186.555 191.103H187.359C187.423 191.703 188.005 192.146 188.725 192.146C189.593 192.146 190.221 191.509 190.221 190.669C190.221 189.801 189.566 189.163 188.67 189.154C188.106 189.145 187.672 189.32 187.423 189.754H186.62L187.091 186.098H190.711V186.836H187.783L187.534 188.794H187.599C187.894 188.563 188.347 188.406 188.818 188.406C190.092 188.406 191.034 189.348 191.034 190.65C191.034 191.943 190.055 192.876 188.725 192.876ZM194.58 185.784L192.419 193.79H191.699L193.85 185.784H194.58ZM197.525 192.876C196.316 192.876 195.402 192.128 195.355 191.103H196.159C196.223 191.703 196.805 192.146 197.525 192.146C198.393 192.146 199.021 191.509 199.021 190.669C199.021 189.801 198.366 189.163 197.47 189.154C196.907 189.145 196.473 189.32 196.223 189.754H195.42L195.891 186.098H199.511V186.836H196.584L196.334 188.794H196.399C196.694 188.563 197.147 188.406 197.618 188.406C198.892 188.406 199.834 189.348 199.834 190.65C199.834 191.943 198.855 192.876 197.525 192.876ZM205.864 187.03C205.864 188.037 206.695 188.933 207.905 189.293L207.563 189.865C206.617 189.57 205.878 188.956 205.522 188.166C205.162 189.039 204.4 189.704 203.426 190.022L203.066 189.45C204.285 189.08 205.153 188.129 205.153 187.03V186.883H203.297V186.301H205.153V185.285H205.882V186.301H207.72V186.883H205.864V187.03ZM209.484 185.322V187.409H210.721V188.018H209.484V190.188H208.764V185.322H209.484ZM209.484 190.567V193.42H204.303V190.567H209.484ZM205.014 191.14V192.829H208.764V191.14H205.014ZM213.445 185.959C214.198 185.964 214.807 186.402 215.163 187.16H217.324V185.322H218.044V193.55H217.324V190.364H215.218C214.872 191.195 214.239 191.675 213.445 191.675C212.236 191.675 211.386 190.567 211.386 188.822C211.386 187.076 212.236 185.968 213.445 185.959ZM213.445 186.605C212.633 186.615 212.079 187.483 212.079 188.822C212.079 190.161 212.633 191.029 213.445 191.029C214.249 191.029 214.812 190.161 214.812 188.822C214.812 187.483 214.249 186.615 213.445 186.605ZM215.375 187.769C215.449 188.088 215.495 188.438 215.495 188.822C215.495 189.159 215.458 189.477 215.403 189.764H217.324V187.769H215.375ZM224.286 185.71C225.487 185.71 226.327 186.356 226.327 187.335C226.327 188.18 225.662 188.794 224.674 188.914V189.717C225.441 189.685 226.221 189.616 226.937 189.505L226.992 190.05C225.256 190.364 223.289 190.382 221.867 190.382L221.775 189.782C222.412 189.787 223.16 189.782 223.945 189.754V188.923C222.929 188.812 222.246 188.194 222.255 187.335C222.246 186.356 223.086 185.71 224.286 185.71ZM224.286 186.273C223.492 186.273 222.929 186.698 222.938 187.335C222.929 187.954 223.492 188.378 224.286 188.388C225.09 188.378 225.635 187.954 225.644 187.335C225.635 186.698 225.09 186.273 224.286 186.273ZM228.192 185.331V188.111H229.421V188.729H228.192V191.61H227.463V185.331H228.192ZM228.488 192.737V193.346H222.975V191.066H223.705V192.737H228.488ZM237.473 191.906V192.515H229.956V191.906H232.071V190.345H230.898V187.815H235.811V186.532H230.88V185.931H236.522V188.415H231.618V189.745H236.716V190.345H235.432V191.906H237.473ZM232.782 191.906H234.721V190.345H232.782V191.906Z" fill="#525252"/>
<ellipse cx="512.741" cy="114.185" rx="0.654639" ry="0.654639" transform="rotate(-90 512.741 114.185)" fill="#A3A3A3" stroke="#A3A3A3" stroke-width="1.45475" stroke-linecap="round"/>
<ellipse cx="512.741" cy="119.131" rx="0.654639" ry="0.654639" transform="rotate(-90 512.741 119.131)" fill="#A3A3A3" stroke="#A3A3A3" stroke-width="1.45475" stroke-linecap="round"/>
<ellipse cx="512.741" cy="109.24" rx="0.654639" ry="0.654639" transform="rotate(-90 512.741 109.24)" fill="#A3A3A3" stroke="#A3A3A3" stroke-width="1.45475" stroke-linecap="round"/>
</g>
<rect x="31.7274" y="88.7274" width="506.545" height="129.286" rx="8.00115" stroke="#262626" stroke-width="1.45475"/>
<g clip-path="url(#clip1_4711_59211)">
<rect x="31" y="230.74" width="508" height="130.741" rx="8.72852" fill="white"/>
<path d="M51.895 263.197L48.7071 251.883H50.8949L52.942 260.212H53.0514L55.2236 251.883H57.2239L59.4117 260.228H59.5055L61.5527 251.883H63.7405L60.5525 263.197H58.5366L56.2706 255.243H56.1925L53.9109 263.197H51.895ZM67.8348 263.369C65.2719 263.369 63.7092 261.666 63.7092 259.009C63.7092 256.384 65.3032 254.602 67.7254 254.602C69.8038 254.602 71.601 255.899 71.601 258.884V259.509H65.6782C65.7017 260.955 66.5534 261.806 67.8504 261.806C68.7256 261.806 69.3194 261.431 69.5694 260.931H71.5228C71.1634 262.4 69.8038 263.369 67.8348 263.369ZM65.6939 258.15H69.6944C69.6788 256.993 68.9131 256.149 67.7567 256.149C66.5534 256.149 65.7564 257.064 65.6939 258.15ZM73.2418 263.197V251.883H75.2421V256.103H75.3203C75.6328 255.493 76.2423 254.602 77.7425 254.602C79.7115 254.602 81.2586 256.134 81.2586 258.962C81.2586 261.76 79.7428 263.354 77.7581 263.354C76.2891 263.354 75.6328 262.478 75.3203 261.853H75.1952V263.197H73.2418ZM75.1952 258.947C75.1952 260.603 75.9141 261.713 77.1955 261.713C78.5238 261.713 79.2271 260.556 79.2271 258.947C79.2271 257.368 78.5395 256.228 77.1955 256.228C75.9141 256.228 75.1952 257.306 75.1952 258.947ZM98.261 250.461V264.588H96.5889V257.337H95.0731V263.932H93.4478V250.836H95.0731V255.931H96.5889V250.461H98.261ZM92.2445 252.243C92.2445 256.056 91.0413 259.337 87.0251 261.635L86.0249 260.431C89.0332 258.689 90.3068 256.454 90.5568 253.633H86.6813V252.243H92.2445ZM102.168 251.086V252.883H105.465V251.086H107.184V257.243H100.449V251.086H102.168ZM102.168 255.868H105.465V254.196H102.168V255.868ZM111.107 250.461V253.321H113.076V254.727H111.107V257.696H109.372V250.461H111.107ZM111.107 258.259V261.963H103.606V263.088H111.544V264.463H101.887V260.697H109.372V259.619H101.871V258.259H111.107ZM118.858 254.477C118.858 256.665 120.155 259.15 122.389 260.181L121.421 261.556C119.827 260.806 118.647 259.29 118.014 257.525C117.373 259.462 116.139 261.119 114.513 261.9L113.498 260.541C115.748 259.478 117.107 256.821 117.123 254.477V253.29H114.045V251.852H121.811V253.29H118.858V254.477ZM124.859 250.461V255.962H127.031V257.415H124.859V264.588H123.124V250.461H124.859ZM132.203 251.446C134.438 251.43 136.079 252.852 136.095 254.852C136.079 256.868 134.438 258.275 132.203 258.275C129.984 258.275 128.328 256.868 128.328 254.852C128.328 252.852 129.984 251.43 132.203 251.446ZM132.203 252.946C130.969 252.946 130.047 253.68 130.047 254.852C130.047 256.04 130.969 256.759 132.203 256.759C133.454 256.759 134.391 256.04 134.391 254.852C134.391 253.68 133.454 252.946 132.203 252.946ZM139.392 250.461V264.604H137.657V250.461H139.392ZM127.687 260.228C130.234 260.228 133.766 260.197 136.813 259.759L136.954 261.025C133.782 261.635 130.391 261.65 127.906 261.65L127.687 260.228ZM157.035 250.461V257.743H155.3V250.461H157.035ZM157.035 258.337V261.978H149.315V263.088H157.488V264.463H147.596V260.713H155.316V259.697H147.565V258.337H157.035ZM153.535 251.367V252.711H152.269V255.79C152.909 255.735 153.535 255.673 154.128 255.602L154.207 256.853C151.394 257.29 148.143 257.384 145.674 257.384L145.487 256.009C145.994 256.009 146.534 256.001 147.096 255.993V252.711H145.862V251.367H153.535ZM148.768 255.962C149.378 255.946 149.995 255.923 150.612 255.884V252.711H148.768V255.962ZM166.443 251.633C166.443 253.415 168.427 255.212 171.443 255.602L170.756 257.009C168.357 256.649 166.45 255.47 165.536 253.868C164.606 255.47 162.708 256.649 160.332 257.009L159.645 255.602C162.63 255.212 164.614 253.415 164.614 251.633V250.914H166.443V251.633ZM171.959 258.228V259.666H166.349V264.588H164.63V259.666H159.082V258.228H171.959ZM189.618 261.447V262.869H176.71V261.447H179.695V257.868C178.569 257.228 177.89 256.22 177.897 254.962C177.882 252.711 180.101 251.227 183.133 251.227C186.18 251.227 188.399 252.711 188.399 254.962C188.399 256.196 187.743 257.189 186.649 257.837V261.447H189.618ZM183.133 252.602C181.023 252.602 179.585 253.493 179.601 254.962C179.585 256.415 181.023 257.321 183.133 257.321C185.242 257.321 186.696 256.415 186.696 254.962C186.696 253.493 185.242 252.602 183.133 252.602ZM181.414 261.447H184.883V258.493C184.344 258.618 183.758 258.681 183.133 258.681C182.523 258.681 181.945 258.618 181.414 258.509V261.447ZM202.37 250.477V260.838H200.635V256.087H197.916V254.649H200.635V250.477H202.37ZM198.01 251.539C198.01 255.259 195.541 258.056 191.462 259.353L190.727 257.962C193.775 256.993 195.783 255.196 196.119 252.961H191.462V251.539H198.01ZM202.729 262.9V264.307H193.165V259.791H194.931V262.9H202.729Z" fill="#404040"/>
<rect x="48.457" y="277.381" width="39.457" height="19.3643" rx="5.81902" fill="#F7EA5D"/>
<path d="M66.7089 283.434L64.8962 290.562H63.3687L62.0857 285.746H62.0653L60.7822 290.562H59.2547L57.4421 283.434H58.827L60.0286 288.322H60.049L61.3525 283.434H62.7985L64.1019 288.302H64.1223L65.3239 283.434H66.7089ZM71.9529 289.371V290.562H68.9081L67.7268 289.88V286.102L68.9081 285.42H70.7716L71.9529 286.102V288.536H69.1219V289.371H71.9529ZM69.1219 286.611V287.487H70.5577V286.611H69.1219ZM75.6028 285.42H76.9369L78.1181 286.102V289.931L76.9369 290.613H75.6028L74.8798 290.196L74.1568 290.613H73.4847V283.129H74.8798V285.837L75.6028 285.42ZM74.8798 286.611V289.422H76.723V286.611H74.8798Z" fill="#525252"/>
<rect x="94.0981" y="277.745" width="42.4559" height="17.5464" rx="5.45533" fill="white"/>
<rect x="94.0981" y="277.745" width="42.4559" height="17.5464" rx="5.45533" stroke="#D4D4D4" stroke-width="0.727377"/>
<path d="M102.86 287.727C104.651 287.727 105.778 288.291 105.787 289.26C105.778 290.221 104.651 290.793 102.86 290.784C101.087 290.793 99.9508 290.221 99.9508 289.26C99.9508 288.291 101.087 287.727 102.86 287.727ZM102.86 288.392C101.604 288.392 100.819 288.716 100.828 289.26C100.819 289.796 101.604 290.11 102.86 290.11C104.125 290.11 104.91 289.796 104.919 289.26C104.91 288.716 104.125 288.392 102.86 288.392ZM105.722 282.935V283.627C105.722 284.292 105.722 284.976 105.491 285.825L104.633 285.733C104.854 284.888 104.854 284.278 104.854 283.637H100.015V282.935H105.722ZM106.664 286.333V287.044H99.1382V286.333H102.158V284.782H103.017V286.333H106.664ZM110.312 283.72C110.302 284.865 111.087 285.908 112.362 286.333L111.918 287.026C110.963 286.689 110.242 286.015 109.868 285.151C109.499 286.079 108.774 286.813 107.791 287.164L107.347 286.481C108.64 286.019 109.416 284.902 109.416 283.72V282.926H110.312V283.72ZM114.162 287.894V290.802H113.285V288.605H108.557V287.894H114.162ZM114.162 282.529V287.497H113.285V282.529H114.162ZM123.036 286.712V287.423H119.749V289.03H118.881V287.423H115.464V286.712H123.036ZM122.058 282.916V285.853H116.434V282.916H122.058ZM117.293 283.609V285.16H121.19V283.609H117.293ZM122.196 289.916V290.627H116.406V288.245H117.284V289.916H122.196ZM126.629 284.634C126.629 286.148 127.478 287.654 128.743 288.226L128.208 288.928C127.266 288.457 126.559 287.52 126.195 286.389C125.83 287.58 125.105 288.586 124.154 289.085L123.6 288.374C124.883 287.764 125.742 286.167 125.742 284.634V283.221H126.629V284.634ZM130.544 282.529V290.821H129.676V285.991H127.829V285.28H129.676V282.529H130.544Z" fill="#525252"/>
<path d="M48.457 308.383H738.01" stroke="#E5E5E5" stroke-width="0.727377" stroke-linecap="round"/>
<path d="M52.7297 326.203L51.3672 327.566" stroke="#262626" stroke-width="0.68127" stroke-linecap="round"/>
<path d="M61.5867 326.203L62.9492 327.566" stroke="#262626" stroke-width="0.68127" stroke-linecap="round"/>
<circle cx="57.1572" cy="331.993" r="5.45016" fill="#FFC117"/>
<path d="M57.1562 328.586V331.941C57.1562 331.974 57.1662 332.007 57.1849 332.035L58.5188 334.036" stroke="#262626" stroke-width="0.68127" stroke-linecap="round"/>
<path d="M69.4521 335.523L69.4429 334.914L71.7238 332.513C72.5179 331.673 72.8965 331.22 72.8965 330.602C72.8965 329.918 72.3148 329.466 71.5668 329.466C70.7727 329.466 70.2648 329.974 70.2648 330.722H69.4799C69.4706 329.54 70.3848 328.745 71.5945 328.745C72.8042 328.745 73.6722 329.558 73.6722 330.602C73.6722 331.35 73.3213 331.931 72.1393 333.15L70.6064 334.729V334.785H73.7923V335.523H69.4521ZM77.1905 335.616C75.7038 335.616 74.8542 334.369 74.8542 332.181C74.8542 330.011 75.7222 328.745 77.1905 328.745C78.6587 328.745 79.5267 330.011 79.5267 332.181C79.5267 334.369 78.668 335.616 77.1905 335.616ZM77.1905 334.877C78.1508 334.877 78.7141 333.907 78.7141 332.181C78.7141 330.454 78.1508 329.466 77.1905 329.466C76.2301 329.466 75.6576 330.454 75.6576 332.181C75.6576 333.907 76.2209 334.877 77.1905 334.877ZM80.6349 335.523L80.6256 334.914L82.9065 332.513C83.7006 331.673 84.0792 331.22 84.0792 330.602C84.0792 329.918 83.4975 329.466 82.7495 329.466C81.9554 329.466 81.4475 329.974 81.4475 330.722H80.6626C80.6533 329.54 81.5675 328.745 82.7772 328.745C83.9869 328.745 84.8549 329.558 84.8549 330.602C84.8549 331.35 84.504 331.931 83.322 333.15L81.7891 334.729V334.785H84.975V335.523H80.6349ZM85.8707 334.157V333.473L88.8811 328.838H89.9061V333.427H90.8387V334.157H89.9061V335.523H89.1119V334.157H85.8707ZM86.7664 333.427H89.1119V329.891H89.0288L86.7664 333.372V333.427ZM98.4478 328.071V334.148H97.7183V331.303H95.3543V330.722H97.7183V329.734H95.3543V329.152H97.7183V328.071H98.4478ZM98.6694 335.487V336.096H93.1565V333.63H93.886V335.487H98.6694ZM92.861 328.662V332.31C93.9922 332.305 95.0819 332.245 96.3331 332.014L96.407 332.615C95.068 332.864 93.9507 332.919 92.7502 332.929H92.1315V328.662H92.861ZM102.483 335.523L102.474 334.914L104.755 332.513C105.549 331.673 105.928 331.22 105.928 330.602C105.928 329.918 105.346 329.466 104.598 329.466C103.804 329.466 103.296 329.974 103.296 330.722H102.511C102.502 329.54 103.416 328.745 104.626 328.745C105.835 328.745 106.703 329.558 106.703 330.602C106.703 331.35 106.352 331.931 105.17 333.15L103.637 334.729V334.785H106.823V335.523H102.483ZM114.506 328.071V332.91H113.777V332.458H112.115V331.977H113.777V328.071H114.506ZM107.71 331.165C109.298 331.174 111.33 331.156 113.103 330.962L113.149 331.433C112.345 331.548 111.51 331.617 110.692 331.654V332.938H109.981V331.682C109.206 331.71 108.462 331.714 107.793 331.71L107.71 331.165ZM114.506 333.206V334.905H109.714V335.643H114.774V336.179H109.003V334.397H113.786V333.732H108.966V333.206H114.506ZM110.388 328.228C111.607 328.228 112.419 328.709 112.428 329.466C112.419 330.232 111.607 330.694 110.388 330.694C109.15 330.694 108.347 330.232 108.347 329.466C108.347 328.709 109.15 328.228 110.388 328.228ZM110.388 328.736C109.557 328.736 109.021 329.023 109.03 329.466C109.021 329.9 109.557 330.195 110.388 330.195C111.21 330.195 111.745 329.9 111.745 329.466C111.745 329.023 111.21 328.736 110.388 328.736ZM118.578 335.523L118.569 334.914L120.85 332.513C121.644 331.673 122.023 331.22 122.023 330.602C122.023 329.918 121.441 329.466 120.693 329.466C119.899 329.466 119.391 329.974 119.391 330.722H118.606C118.597 329.54 119.511 328.745 120.721 328.745C121.931 328.745 122.799 329.558 122.799 330.602C122.799 331.35 122.448 331.931 121.266 333.15L119.733 334.729V334.785H122.919V335.523H118.578ZM126.363 335.616C124.959 335.616 123.981 334.84 123.99 333.75C123.981 332.882 124.581 332.171 125.347 332.051V332.014C124.682 331.857 124.248 331.248 124.248 330.518C124.248 329.493 125.144 328.745 126.363 328.745C127.582 328.745 128.478 329.493 128.487 330.518C128.478 331.248 128.034 331.857 127.379 332.014V332.051C128.136 332.171 128.736 332.882 128.745 333.75C128.736 334.84 127.757 335.616 126.363 335.616ZM126.363 334.886C127.323 334.886 127.914 334.406 127.914 333.704C127.914 332.966 127.259 332.421 126.363 332.421C125.467 332.421 124.802 332.966 124.821 333.704C124.802 334.406 125.403 334.886 126.363 334.886ZM126.363 331.719C127.12 331.719 127.674 331.257 127.674 330.583C127.674 329.918 127.148 329.466 126.363 329.466C125.569 329.466 125.052 329.918 125.052 330.583C125.052 331.257 125.597 331.719 126.363 331.719ZM131.894 328.367C133.122 328.376 134.018 329.115 134.018 330.186C134.018 331.257 133.122 331.996 131.894 331.996C130.648 331.996 129.761 331.257 129.761 330.186C129.761 329.115 130.648 328.376 131.894 328.367ZM131.894 328.976C131.072 328.976 130.463 329.475 130.472 330.186C130.463 330.906 131.072 331.405 131.894 331.405C132.707 331.405 133.316 330.906 133.316 330.186C133.316 329.475 132.707 328.976 131.894 328.976ZM136.345 328.062V332.282H135.625V328.062H136.345ZM136.345 332.679V334.655H131.737V335.579H136.641V336.161H131.026V334.111H135.625V333.261H131.008V332.679H136.345ZM144.241 328.893V334.184H140.455V328.893H144.241ZM141.156 329.475V333.593H143.52V329.475H141.156ZM146.466 328.062V331.34H147.842V331.968H146.466V336.271H145.746V328.062H146.466ZM154.703 328.062V330.075H155.94V330.675H154.703V332.725H153.983V328.062H154.703ZM152.459 328.598C152.45 330.666 151 332.144 148.571 332.809L148.276 332.227C150.298 331.682 151.531 330.588 151.683 329.198H148.645V328.598H152.459ZM154.703 333.104V336.161H149.504V333.104H154.703ZM150.224 333.704V335.57H153.983V333.704H150.224Z" fill="#525252"/>
<circle cx="177.917" cy="329.84" r="2.18213" fill="#262626"/>
<circle cx="170.643" cy="329.84" r="2.18213" fill="#262626"/>
<path d="M177.917 332.75C179.697 332.75 180.411 334.529 180.679 335.599C180.783 336.016 180.453 336.388 180.022 336.388H178.33C178.037 335.29 177.471 334.045 176.375 333.333C176.769 332.985 177.273 332.75 177.917 332.75Z" fill="#262626"/>
<path d="M170.644 332.75C171.288 332.75 171.79 332.985 172.185 333.333C171.089 334.045 170.523 335.29 170.23 336.388H168.538C168.108 336.388 167.778 336.016 167.883 335.599C168.151 334.529 168.863 332.75 170.644 332.75Z" fill="#262626"/>
<circle cx="174.281" cy="329.841" r="2.90951" fill="#FFC117"/>
<path d="M174.278 333.479C176.975 333.479 177.672 335.88 177.852 337.12C177.909 337.517 177.589 337.843 177.187 337.843H171.368C170.966 337.843 170.646 337.517 170.703 337.12C170.883 335.88 171.58 333.479 174.278 333.479Z" fill="#FFC117"/>
<path d="M188.725 335.616C187.515 335.616 186.601 334.868 186.555 333.843H187.359C187.423 334.443 188.005 334.886 188.725 334.886C189.593 334.886 190.221 334.249 190.221 333.409C190.221 332.541 189.566 331.904 188.67 331.894C188.106 331.885 187.672 332.061 187.423 332.495H186.62L187.091 328.838H190.711V329.577H187.783L187.534 331.534H187.599C187.894 331.303 188.347 331.146 188.818 331.146C190.092 331.146 191.034 332.088 191.034 333.39C191.034 334.683 190.055 335.616 188.725 335.616ZM194.58 328.524L192.419 336.53H191.699L193.85 328.524H194.58ZM197.525 335.616C196.316 335.616 195.402 334.868 195.355 333.843H196.159C196.223 334.443 196.805 334.886 197.525 334.886C198.393 334.886 199.021 334.249 199.021 333.409C199.021 332.541 198.366 331.904 197.47 331.894C196.907 331.885 196.473 332.061 196.223 332.495H195.42L195.891 328.838H199.511V329.577H196.584L196.334 331.534H196.399C196.694 331.303 197.147 331.146 197.618 331.146C198.892 331.146 199.834 332.088 199.834 333.39C199.834 334.683 198.855 335.616 197.525 335.616ZM205.864 329.77C205.864 330.777 206.695 331.673 207.905 332.033L207.563 332.605C206.617 332.31 205.878 331.696 205.522 330.906C205.162 331.779 204.4 332.444 203.426 332.762L203.066 332.19C204.285 331.82 205.153 330.869 205.153 329.77V329.623H203.297V329.041H205.153V328.025H205.882V329.041H207.72V329.623H205.864V329.77ZM209.484 328.062V330.149H210.721V330.759H209.484V332.929H208.764V328.062H209.484ZM209.484 333.307V336.161H204.303V333.307H209.484ZM205.014 333.88V335.57H208.764V333.88H205.014ZM213.445 328.699C214.198 328.704 214.807 329.143 215.163 329.9H217.324V328.062H218.044V336.29H217.324V333.104H215.218C214.872 333.935 214.239 334.415 213.445 334.415C212.236 334.415 211.386 333.307 211.386 331.562C211.386 329.817 212.236 328.709 213.445 328.699ZM213.445 329.346C212.633 329.355 212.079 330.223 212.079 331.562C212.079 332.901 212.633 333.769 213.445 333.769C214.249 333.769 214.812 332.901 214.812 331.562C214.812 330.223 214.249 329.355 213.445 329.346ZM215.375 330.509C215.449 330.828 215.495 331.179 215.495 331.562C215.495 331.899 215.458 332.218 215.403 332.504H217.324V330.509H215.375ZM224.286 328.45C225.487 328.45 226.327 329.096 226.327 330.075C226.327 330.92 225.662 331.534 224.674 331.654V332.458C225.441 332.425 226.221 332.356 226.937 332.245L226.992 332.79C225.256 333.104 223.289 333.123 221.867 333.123L221.775 332.522C222.412 332.527 223.16 332.522 223.945 332.495V331.664C222.929 331.553 222.246 330.934 222.255 330.075C222.246 329.096 223.086 328.45 224.286 328.45ZM224.286 329.013C223.492 329.013 222.929 329.438 222.938 330.075C222.929 330.694 223.492 331.119 224.286 331.128C225.09 331.119 225.635 330.694 225.644 330.075C225.635 329.438 225.09 329.013 224.286 329.013ZM228.192 328.071V330.851H229.421V331.47H228.192V334.351H227.463V328.071H228.192ZM228.488 335.477V336.087H222.975V333.806H223.705V335.477H228.488ZM237.473 334.646V335.256H229.956V334.646H232.071V333.086H230.898V330.555H235.811V329.272H230.88V328.672H236.522V331.156H231.618V332.485H236.716V333.086H235.432V334.646H237.473ZM232.782 334.646H234.721V333.086H232.782V334.646Z" fill="#525252"/>
<ellipse cx="512.741" cy="256.925" rx="0.654639" ry="0.654639" transform="rotate(-90 512.741 256.925)" fill="#A3A3A3" stroke="#A3A3A3" stroke-width="1.45475" stroke-linecap="round"/>
<ellipse cx="512.741" cy="261.871" rx="0.654639" ry="0.654639" transform="rotate(-90 512.741 261.871)" fill="#A3A3A3" stroke="#A3A3A3" stroke-width="1.45475" stroke-linecap="round"/>
<ellipse cx="512.741" cy="251.98" rx="0.654639" ry="0.654639" transform="rotate(-90 512.741 251.98)" fill="#A3A3A3" stroke="#A3A3A3" stroke-width="1.45475" stroke-linecap="round"/>
</g>
<rect x="31.7274" y="231.468" width="506.545" height="129.286" rx="8.00115" stroke="#262626" stroke-width="1.45475"/>
<path d="M31.4375 65.5508H539.001" stroke="#D4D4D4" stroke-width="0.727377" stroke-linecap="round"/>
<g clip-path="url(#clip2_4711_59211)">
<path d="M53.3945 43.5963C53.3945 44.8493 54.3278 46.0768 56.1434 46.5754L55.4914 47.675C54.1616 47.317 53.2155 46.5371 52.704 45.5398C52.1926 46.6394 51.2273 47.4896 49.8528 47.8796L49.1751 46.78C51.0035 46.2686 51.9752 44.9772 51.9752 43.5963V43.5708H49.5587V42.4456H51.9752V41.167H53.4073V42.4456H55.811V43.5708H53.3945V43.5963ZM58.3554 41.2181V44.0055H59.9664V45.1818H58.3554V48.0203H56.9362V41.2181H58.3554ZM58.3554 48.5061V52.636H50.8884V48.5061H58.3554ZM52.2949 49.6313V51.4852H56.949V49.6313H52.2949ZM63.7127 42.062C64.7612 42.062 65.6242 42.6438 66.142 43.6603H68.8399V41.2181H70.2463V52.7894H68.8399V48.4166H66.2443C65.7457 49.5674 64.8315 50.2322 63.7127 50.2322C61.9738 50.2322 60.7464 48.6596 60.7464 46.1407C60.7464 43.6475 61.9738 42.062 63.7127 42.062ZM63.7127 43.3406C62.7538 43.3406 62.1017 44.3763 62.1145 46.1407C62.1017 47.918 62.7538 48.9536 63.7127 48.9536C64.6717 48.9536 65.311 47.918 65.3237 46.1407C65.311 44.3763 64.6717 43.3406 63.7127 43.3406ZM66.5384 44.8238C66.6215 45.2265 66.6663 45.6676 66.6663 46.1407C66.6663 46.5435 66.6343 46.9143 66.5768 47.2659H68.8399V44.8238H66.5384ZM82.4057 46.5243V47.675H77.8284V48.634C79.8997 48.7746 81.1144 49.4906 81.1271 50.6925C81.1144 52.0222 79.6184 52.7638 77.1251 52.7638C74.6063 52.7638 73.0976 52.0222 73.0976 50.6925C73.0976 49.4906 74.325 48.7682 76.4219 48.634V47.675H71.8701V46.5243H82.4057ZM77.1251 49.708C75.4374 49.7208 74.5296 50.0532 74.5424 50.6925C74.5296 51.3318 75.4374 51.677 77.1251 51.677C78.7745 51.677 79.6951 51.3318 79.7079 50.6925C79.6951 50.0532 78.7745 49.7208 77.1251 49.708ZM81.4596 41.7296V42.8675H78.1352C78.359 43.8201 79.7399 44.6767 81.9071 44.8749L81.4084 46.0001C79.3115 45.7891 77.7517 44.9516 77.1251 43.7753C76.4986 44.9452 74.9643 45.7891 72.8674 46.0001L72.3816 44.8749C74.504 44.6767 75.8849 43.8073 76.1278 42.8675H72.8291V41.7296H81.4596ZM92.8135 41.2309V49.5801H91.3814V41.2309H92.8135ZM93.1331 51.3957V52.5465H85.1675V48.7363H86.5995V51.3957H93.1331ZM86.51 41.9853C88.2617 41.9853 89.617 43.2 89.617 44.8749C89.617 46.5882 88.2617 47.7773 86.51 47.7773C84.7456 47.7773 83.3902 46.5882 83.3902 44.8749C83.3902 43.2 84.7456 41.9853 86.51 41.9853ZM86.51 43.2255C85.5255 43.2255 84.7711 43.8776 84.7839 44.8749C84.7711 45.8978 85.5255 46.5371 86.51 46.5371C87.469 46.5371 88.2233 45.8978 88.2233 44.8749C88.2233 43.8776 87.469 43.2255 86.51 43.2255ZM103.055 42.3817V43.5068H101.175C101.195 44.5297 101.987 45.5718 103.413 46.0384L102.799 47.0741C101.7 46.7353 100.939 46.0448 100.523 45.1946C100.101 46.1215 99.3407 46.8951 98.2475 47.2915L97.6082 46.2174C99.021 45.6868 99.801 44.5553 99.8329 43.5068H97.9278V42.3817H99.8329V41.2693H101.175V42.3817H103.055ZM107.492 41.2309V47.3298H106.136V44.8366H105.024V47.2531H103.682V41.4483H105.024V43.6986H106.136V41.2309H107.492ZM107.492 47.7773V50.6797H101.099V51.5747H107.901V52.636H99.6795V49.6441H106.085V48.8513H99.6667V47.7773H107.492ZM118.526 41.2309V49.7336H117.12V41.2309H118.526ZM118.846 51.3957V52.5465H110.829V49.0431H112.261V51.3957H118.846ZM114.844 42.0109V45.5781H110.931V47.0357C113.022 47.0293 114.396 46.9654 115.994 46.6777L116.148 47.8157C114.409 48.1353 112.887 48.1993 110.522 48.1993H109.537V44.5041H113.437V43.1488H109.512V42.0109H114.844ZM124.599 44.5041C124.599 46.3964 125.712 48.391 127.578 49.171L126.798 50.2962C125.43 49.708 124.433 48.4933 123.909 47.023C123.372 48.6084 122.362 49.9381 121.006 50.5774L120.188 49.4651C122.017 48.6212 123.154 46.4732 123.154 44.5041V43.5324H120.61V42.3561H127.131V43.5324H124.599V44.5041ZM129.854 41.2181V52.7766H128.422V41.2181H129.854Z" fill="#262626"/>
<rect x="31.4375" y="64.0938" width="117.835" height="2.18213" fill="#262626"/>
</g>
<path d="M170.605 41.3535C172.292 41.3535 173.494 42.2869 173.507 43.6806C173.494 44.8249 172.631 45.6879 171.346 45.9309V46.8642C172.305 46.8131 173.27 46.7236 174.172 46.5957L174.287 47.6314C171.883 48.0661 169.198 48.1045 167.242 48.1045L167.088 46.9665C167.92 46.9729 168.891 46.9665 169.914 46.9282V45.9309C168.591 45.7135 167.702 44.8441 167.715 43.6806C167.702 42.2869 168.904 41.3535 170.605 41.3535ZM170.605 42.4403C169.684 42.4403 169.032 42.9006 169.045 43.6806C169.032 44.4349 169.684 44.908 170.605 44.9208C171.525 44.908 172.152 44.4349 172.164 43.6806C172.152 42.9006 171.525 42.4403 170.605 42.4403ZM176.269 40.8677V44.6011H177.829V45.7774H176.269V49.6899H174.85V40.8677H176.269ZM176.678 51.0197V52.1704H168.674V48.91H170.093V51.0197H176.678ZM188.991 49.8945V51.0708H178.43V49.8945H181.23V47.9894H179.683V44.2176H186.331V42.7983H179.657V41.6476H187.738V45.3555H181.102V46.8387H188.006V47.9894H186.319V49.8945H188.991ZM182.611 49.8945H184.925V47.9894H182.611V49.8945ZM198.861 40.8677V44.4989H200.473V45.6752H198.861V49.4981H197.442V40.8677H198.861ZM196.611 42.1462V43.2842H189.758V42.1462H192.481V40.8549H193.901V42.1462H196.611ZM193.185 43.7573C194.847 43.7573 195.997 44.6395 196.01 45.9692C195.997 47.2862 194.847 48.1556 193.185 48.1556C191.51 48.1556 190.346 47.2862 190.346 45.9692C190.346 44.6395 191.51 43.7573 193.185 43.7573ZM193.185 44.8569C192.302 44.8569 191.727 45.266 191.727 45.9692C191.727 46.6597 192.302 47.0688 193.185 47.056C194.067 47.0688 194.655 46.6597 194.655 45.9692C194.655 45.266 194.067 44.8569 193.185 44.8569ZM199.322 51.0325V52.1832H191.458V48.8205H192.878V51.0325H199.322ZM209.614 42.0184V43.1435H207.735C207.754 44.1664 208.547 45.2085 209.972 45.6752L209.359 46.7108C208.259 46.372 207.498 45.6815 207.083 44.8313C206.661 45.7583 205.9 46.5318 204.807 46.9282L204.168 45.8542C205.58 45.3235 206.36 44.192 206.392 43.1435H204.487V42.0184H206.392V40.906H207.735V42.0184H209.614ZM214.051 40.8677V46.9665H212.696V44.4733H211.583V46.8898H210.241V41.085H211.583V43.3353H212.696V40.8677H214.051ZM214.051 47.414V50.3164H207.658V51.2115H214.46V52.2727H206.239V49.2808H212.645V48.4881H206.226V47.414H214.051ZM225.085 40.8677V49.3703H223.679V40.8677H225.085ZM225.405 51.0325V52.1832H217.388V48.6798H218.82V51.0325H225.405ZM221.403 41.6476V45.2149H217.491V46.6725C219.581 46.6661 220.956 46.6021 222.554 46.3145L222.707 47.4524C220.968 47.772 219.447 47.836 217.081 47.836H216.097V44.1408H219.997V42.7855H216.071V41.6476H221.403ZM231.159 44.1408C231.159 46.0332 232.271 48.0278 234.138 48.8077L233.358 49.9329C231.99 49.3447 230.993 48.1301 230.468 46.6597C229.931 48.2451 228.921 49.5749 227.566 50.2142L226.748 49.1018C228.576 48.2579 229.714 46.1099 229.714 44.1408V43.1691H227.17V41.9928H233.69V43.1691H231.159V44.1408ZM236.414 40.8549V52.4133H234.982V40.8549H236.414Z" fill="#737373"/>
<path d="M283.656 40.8677V49.3064H282.224V40.8677H283.656ZM283.976 51.0325V52.1832H276.01V48.5008H277.442V51.0325H283.976ZM278.337 42.6321C278.337 44.2431 279.283 45.7647 281.112 46.3784L280.383 47.5035C279.066 47.0433 278.126 46.1227 277.621 44.9464C277.097 46.2058 276.144 47.2159 274.782 47.7081L274.041 46.583C275.92 45.9181 276.867 44.2943 276.867 42.6321V41.5069H278.337V42.6321ZM289.499 43.3225C289.499 44.5884 290.484 45.8414 292.299 46.3272L291.634 47.4268C290.298 47.0624 289.339 46.2825 288.809 45.2788C288.31 46.4167 287.345 47.3118 285.97 47.7209L285.305 46.6213C287.108 46.0715 288.08 44.7162 288.08 43.3225V43.2586H285.663V42.1335H288.08V40.8037H289.512V42.1335H291.916V43.2586H289.499V43.3225ZM295.023 40.8549V47.8488H293.603V45.1765H291.57V44.0258H293.603V40.8549H295.023ZM291.11 48.0789C293.552 48.0789 295.061 48.8589 295.061 50.2269C295.061 51.6078 293.552 52.4006 291.11 52.4006C288.681 52.4006 287.172 51.6078 287.185 50.2269C287.172 48.8589 288.681 48.0789 291.11 48.0789ZM291.11 49.1657C289.499 49.1785 288.591 49.5365 288.591 50.2269C288.591 50.9174 289.499 51.301 291.11 51.301C292.747 51.301 293.642 50.9174 293.642 50.2269C293.642 49.5365 292.747 49.1785 291.11 49.1657ZM305.776 40.8677V44.4989H307.387V45.6752H305.776V49.4981H304.356V40.8677H305.776ZM303.525 42.1462V43.2842H296.672V42.1462H299.395V40.8549H300.815V42.1462H303.525ZM300.099 43.7573C301.761 43.7573 302.912 44.6395 302.924 45.9692C302.912 47.2862 301.761 48.1556 300.099 48.1556C298.424 48.1556 297.26 47.2862 297.26 45.9692C297.26 44.6395 298.424 43.7573 300.099 43.7573ZM300.099 44.8569C299.216 44.8569 298.641 45.266 298.641 45.9692C298.641 46.6597 299.216 47.0688 300.099 47.056C300.981 47.0688 301.569 46.6597 301.569 45.9692C301.569 45.266 300.981 44.8569 300.099 44.8569ZM306.236 51.0325V52.1832H298.373V48.8205H299.792V51.0325H306.236ZM316.529 42.0184V43.1435H314.649C314.668 44.1664 315.461 45.2085 316.887 45.6752L316.273 46.7108C315.173 46.372 314.412 45.6815 313.997 44.8313C313.575 45.7583 312.814 46.5318 311.721 46.9282L311.082 45.8542C312.495 45.3235 313.274 44.192 313.306 43.1435H311.401V42.0184H313.306V40.906H314.649V42.0184H316.529ZM320.965 40.8677V46.9665H319.61V44.4733H318.498V46.8898H317.155V41.085H318.498V43.3353H319.61V40.8677H320.965ZM320.965 47.414V50.3164H314.572V51.2115H321.374V52.2727H313.153V49.2808H319.559V48.4881H313.14V47.414H320.965ZM331.999 40.8677V49.3703H330.593V40.8677H331.999ZM332.319 51.0325V52.1832H324.302V48.6798H325.734V51.0325H332.319ZM328.317 41.6476V45.2149H324.405V46.6725C326.495 46.6661 327.87 46.6021 329.468 46.3145L329.621 47.4524C327.882 47.772 326.361 47.836 323.995 47.836H323.011V44.1408H326.911V42.7855H322.985V41.6476H328.317ZM338.073 44.1408C338.073 46.0332 339.185 48.0278 341.052 48.8077L340.272 49.9329C338.904 49.3447 337.907 48.1301 337.382 46.6597C336.845 48.2451 335.835 49.5749 334.48 50.2142L333.662 49.1018C335.49 48.2579 336.628 46.1099 336.628 44.1408V43.1691H334.084V41.9928H340.604V43.1691H338.073V44.1408ZM343.328 40.8549V52.4133H341.896V40.8549H343.328Z" fill="#737373"/>
<defs>
<clipPath id="clip0_4711_59211">
<rect x="31" y="88" width="508" height="130.741" rx="8.72852" fill="white"/>
</clipPath>
<clipPath id="clip1_4711_59211">
<rect x="31" y="230.74" width="508" height="130.741" rx="8.72852" fill="white"/>
</clipPath>
<clipPath id="clip2_4711_59211">
<rect width="117.835" height="38.551" fill="white" transform="translate(31.4375 27)"/>
</clipPath>
</defs>
</svg>
