<svg width="16" height="16" viewBox="0 0 16 16" fill="none" xmlns="http://www.w3.org/2000/svg">
<circle cx="11.334" cy="6" r="2" fill="#262626"/>
<circle cx="4.66602" cy="6" r="2" fill="#262626"/>
<path fill-rule="evenodd" clip-rule="evenodd" d="M11.7116 11.9997H13.2626C13.657 11.9997 13.9595 11.6597 13.8637 11.2772C13.6182 10.2969 12.9646 8.66632 11.3326 8.66632C10.7419 8.66632 10.2794 8.87997 9.91797 9.19908C10.9231 9.85122 11.4429 10.9931 11.7116 11.9997Z" fill="#262626"/>
<path fill-rule="evenodd" clip-rule="evenodd" d="M6.08074 9.19907C5.71935 8.87996 5.25682 8.66632 4.6661 8.66632C3.03415 8.66632 2.38054 10.2969 2.13505 11.2771C2.03924 11.6597 2.34167 11.9997 2.73608 11.9997H4.28712C4.55585 10.9931 5.07557 9.85121 6.08074 9.19907Z" fill="#262626"/>
<circle cx="8.00065" cy="5.99998" r="2.66667" fill="#FFC117"/>
<path d="M7.99935 9.33331C10.4718 9.33331 11.1103 11.534 11.2753 12.6707C11.3281 13.0351 11.0342 13.3333 10.666 13.3333H5.33268C4.96449 13.3333 4.67058 13.0351 4.72344 12.6707C4.88836 11.534 5.52691 9.33331 7.99935 9.33331Z" fill="#FFC117"/>
</svg>
