<svg width="365" height="82" viewBox="0 0 365 82" fill="none" xmlns="http://www.w3.org/2000/svg">
<g clip-path="url(#clip0_3_48313)">
<path d="M128.082 61.6358L120.484 66.0245H92.3823V20.1717H120.484L128.082 24.5605V61.6358ZM101.553 28.0322V58.1641H118.911V28.0322H101.553ZM168.885 61.9633L161.286 66.3521H147.334L139.735 61.9633V37.3338L147.334 32.945H161.286L168.885 37.3338V61.9633ZM148.709 40.609V58.6881H159.91V40.609H148.709ZM188.849 40.9365V58.3606H205.094V66.0245H187.473L179.875 61.6358V37.6613L187.473 33.2725H205.094V40.9365H188.849ZM212.149 40.9365V33.2725H218.176V27.7702L227.15 22.5954V33.2725H234.355V40.9365H227.15V58.3606H234.355V66.0245H225.774L218.176 61.6358V40.9365H212.149ZM253.009 66.0245H244.035V18.2066H253.009V35.6307L257.659 32.945H266.24L273.839 37.3338V66.0245H264.865V40.609H253.009V66.0245ZM305.119 40.9365H293.852V66.0245H284.878V33.2725H292.28L293.852 35.9582L298.503 33.2725H305.119V40.9365ZM312.864 61.9633V33.2725H321.838V58.6881H333.039V33.2725H342.013V66.3521H334.611L333.039 63.6664L328.388 66.3521H320.462L312.864 61.9633Z" fill="#525252"/>
<rect x="17.2148" y="10.2936" width="53.222" height="61.41" rx="4.094" fill="#262626"/>
<path d="M50.9898 30.7637L58.1543 39.7194L50.9898 48.675" stroke="#FFC117" stroke-width="4.9128"/>
<path d="M36.6606 30.7637L29.4961 39.7193L36.6606 48.6749" stroke="#FFC117" stroke-width="4.9128"/>
</g>
<defs>
<clipPath id="clip0_3_48313">
<rect width="363.911" height="81.88" fill="white" transform="translate(0.839844 0.0585938)"/>
</clipPath>
</defs>
</svg>
