<svg width="40" height="40" viewBox="0 0 40 40" fill="none" xmlns="http://www.w3.org/2000/svg">
<circle cx="20" cy="20" r="20" fill="#262626"/>
<path d="M28.27 20C28.2698 20.1988 28.1907 20.3894 28.05 20.53L21.05 27.53C20.8571 27.7175 20.5787 27.7879 20.3198 27.7146C20.0609 27.6413 19.8608 27.4355 19.7948 27.1746C19.7289 26.9138 19.8071 26.6375 20 26.45L26.45 20L20 13.55C19.7993 13.363 19.7168 13.0814 19.7846 12.8157C19.8525 12.5499 20.06 12.3424 20.3257 12.2746C20.5914 12.2067 20.873 12.2893 21.06 12.49L28.06 19.49C28.1922 19.6271 28.2673 19.8094 28.27 20Z" fill="white"/>
<path d="M28.26 20C28.2546 20.4119 27.922 20.7446 27.51 20.75L12.51 20.75C12.2421 20.75 11.9945 20.607 11.8605 20.375C11.7265 20.1429 11.7265 19.857 11.8605 19.625C11.9945 19.3929 12.2421 19.25 12.51 19.25L27.51 19.25C27.922 19.2553 28.2546 19.588 28.26 20Z" fill="white"/>
<path d="M29 20C28.9996 20.3976 28.8414 20.7789 28.56 21.06L21.56 28.06C20.9718 28.6454 20.0204 28.6431 19.435 28.055C18.8496 27.4668 18.8518 26.5154 19.44 25.93L25.39 20L19.46 14.08C18.8718 13.4945 18.8696 12.5431 19.455 11.955C20.0404 11.3668 20.9918 11.3645 21.58 11.95L28.58 18.95C28.8516 19.2318 29.0023 19.6086 29 20Z" fill="white"/>
<path d="M29 20C29 20.8284 28.3284 21.5 27.5 21.5L12.5 21.5C11.6716 21.5 11 20.8284 11 20C11 19.1715 11.6716 18.5 12.5 18.5L27.5 18.5C28.3284 18.5 29 19.1715 29 20Z" fill="white"/>
</svg>
