<svg width="24" height="24" viewBox="0 0 24 24" fill="none" xmlns="http://www.w3.org/2000/svg">
<circle cx="12" cy="12" r="12" fill="#262626"/>
<path d="M16.9636 11.9993C16.9635 12.1186 16.916 12.233 16.8316 12.3173L12.6316 16.5173C12.5158 16.6299 12.3488 16.6721 12.1935 16.6281C12.0381 16.5842 11.9181 16.4606 11.8785 16.3041C11.8389 16.1476 11.8858 15.9819 12.0016 15.8693L15.8716 11.9993L12.0016 8.12934C11.8812 8.01715 11.8316 7.8482 11.8723 7.68876C11.913 7.52932 12.0375 7.40482 12.197 7.3641C12.3564 7.32339 12.5254 7.37294 12.6376 7.49334L16.8376 11.6933C16.9169 11.7756 16.962 11.885 16.9636 11.9993Z" fill="white"/>
<path d="M16.9576 11.9993C16.9543 12.2465 16.7547 12.4461 16.5076 12.4493L7.50756 12.4493C7.34679 12.4493 7.19824 12.3636 7.11785 12.2243C7.03747 12.0851 7.03747 11.9136 7.11785 11.7743C7.19824 11.6351 7.34679 11.5493 7.50756 11.5493L16.5076 11.5493C16.7547 11.5526 16.9543 11.7522 16.9576 11.9993Z" fill="white"/>
<path d="M17.4016 11.9993C17.4014 12.238 17.3064 12.4667 17.1376 12.6353L12.9376 16.8353C12.5847 17.1866 12.0138 17.1852 11.6626 16.8323C11.3113 16.4794 11.3127 15.9086 11.6656 15.5573L15.2356 11.9993L11.6776 8.44734C11.3247 8.09608 11.3233 7.52525 11.6746 7.17234C12.0258 6.81943 12.5967 6.81808 12.9496 7.16934L17.1496 11.3693C17.3125 11.5384 17.403 11.7645 17.4016 11.9993Z" fill="white"/>
<path d="M17.4016 11.9993C17.4016 12.4964 16.9986 12.8993 16.5016 12.8993L7.50156 12.8993C7.00451 12.8993 6.60156 12.4964 6.60156 11.9993C6.60156 11.5023 7.00451 11.0993 7.50156 11.0993L16.5016 11.0993C16.9986 11.0993 17.4016 11.5023 17.4016 11.9993Z" fill="white"/>
</svg>
