<svg width="16" height="16" viewBox="0 0 16 16" fill="none" xmlns="http://www.w3.org/2000/svg">
<path d="M2.96646 9.2721L7.60154 13.6263C7.7612 13.7762 7.84103 13.8512 7.93516 13.8697C7.97755 13.878 8.02115 13.878 8.06354 13.8697C8.15766 13.8512 8.23749 13.7762 8.39716 13.6263L13.0322 9.2721C14.3363 8.04702 14.4947 6.03103 13.3979 4.61734L13.1917 4.35152C11.8795 2.66035 9.24577 2.94397 8.32379 4.87573C8.19356 5.1486 7.80514 5.1486 7.6749 4.87573C6.75293 2.94397 4.11916 2.66035 2.80705 4.35152L2.60081 4.61734C1.50398 6.03103 1.66235 8.04702 2.96646 9.2721Z" fill="white" stroke="#262626" stroke-width="1.33333"/>
</svg>
