<svg width="24" height="24" viewBox="0 0 24 24" fill="none" xmlns="http://www.w3.org/2000/svg">
<path d="M4.45067 13.9087L11.4033 20.4399C11.6428 20.6649 11.7625 20.7774 11.9037 20.8051C11.9673 20.8176 12.0327 20.8176 12.0963 20.8051C12.2375 20.7774 12.3572 20.6649 12.5967 20.4399L19.5493 13.9087C21.5055 12.0711 21.743 9.04709 20.0978 6.92655L19.7885 6.52783C17.8203 3.99107 13.8696 4.4165 12.4867 7.31414C12.2913 7.72345 11.7087 7.72345 11.5133 7.31414C10.1304 4.4165 6.17972 3.99107 4.21154 6.52783L3.90219 6.92656C2.25695 9.04709 2.4945 12.0711 4.45067 13.9087Z" fill="#FFC117" stroke="#262626" stroke-width="2"/>
</svg>
