<svg width="16" height="16" viewBox="0 0 16 16" fill="none" xmlns="http://www.w3.org/2000/svg">
<path d="M12.6673 2H3.33398C2.39118 2 1.91977 2 1.62688 2.2748C1.33398 2.5496 1.33398 2.99188 1.33398 3.87644V4.33632C1.33398 5.02821 1.33398 5.37416 1.50705 5.66095C1.68012 5.94773 1.9963 6.12572 2.62866 6.4817L4.57068 7.57492C4.99496 7.81376 5.2071 7.93318 5.35899 8.06505C5.67531 8.33966 5.87004 8.66234 5.95828 9.05811C6.00065 9.24816 6.00065 9.47054 6.00065 9.91529L6.00065 11.6949C6.00065 12.3013 6.00065 12.6045 6.1686 12.8409C6.33655 13.0772 6.63484 13.1938 7.23142 13.427C8.48384 13.9166 9.11005 14.1614 9.55535 13.8829C10.0007 13.6044 10.0007 12.9679 10.0007 11.6949V9.91529C10.0007 9.47054 10.0007 9.24816 10.043 9.05811C10.1313 8.66234 10.326 8.33966 10.6423 8.06505C10.7942 7.93318 11.0063 7.81376 11.4306 7.57492L13.3726 6.4817C14.005 6.12572 14.3212 5.94773 14.4943 5.66095C14.6673 5.37416 14.6673 5.02821 14.6673 4.33632V3.87644C14.6673 2.99188 14.6673 2.5496 14.3744 2.2748C14.0815 2 13.6101 2 12.6673 2Z" fill="#262626"/>
</svg>
