<svg width="40" height="40" viewBox="0 0 40 40" fill="none" xmlns="http://www.w3.org/2000/svg">
<circle cx="20" cy="20" r="20" fill="#262626"/>
<path d="M19.9996 28.27C19.8007 28.2698 19.6101 28.1907 19.4696 28.05L12.4696 21.05C12.282 20.8571 12.2116 20.5787 12.2849 20.3198C12.3582 20.0609 12.564 19.8608 12.8249 19.7948C13.0858 19.7289 13.362 19.8071 13.5496 20L19.9996 26.45L26.4496 20C26.6365 19.7993 26.9181 19.7168 27.1838 19.7846C27.4496 19.8525 27.6571 20.06 27.7249 20.3257C27.7928 20.5914 27.7102 20.873 27.5096 21.06L20.5096 28.06C20.3724 28.1922 20.1901 28.2673 19.9996 28.27Z" fill="#FFC117"/>
<path d="M19.9996 28.26C19.5876 28.2546 19.2549 27.922 19.2496 27.51V12.51C19.2496 12.2421 19.3925 11.9945 19.6246 11.8605C19.8566 11.7265 20.1425 11.7265 20.3746 11.8605C20.6066 11.9945 20.7496 12.2421 20.7496 12.51V27.51C20.7442 27.922 20.4115 28.2546 19.9996 28.26Z" fill="#FFC117"/>
<path d="M19.9996 29C19.6019 28.9996 19.2206 28.8414 18.9396 28.56L11.9396 21.56C11.3541 20.9718 11.3564 20.0204 11.9446 19.435C12.5327 18.8496 13.4841 18.8518 14.0696 19.44L19.9996 25.39L25.9196 19.46C26.505 18.8718 27.4564 18.8696 28.0446 19.455C28.6327 20.0404 28.635 20.9918 28.0496 21.58L21.0496 28.58C20.7678 28.8516 20.391 29.0023 19.9996 29Z" fill="#FFC117"/>
<path d="M19.9996 29C19.1711 29 18.4996 28.3284 18.4996 27.5V12.5C18.4996 11.6716 19.1711 11 19.9996 11C20.828 11 21.4996 11.6716 21.4996 12.5V27.5C21.4996 28.3284 20.828 29 19.9996 29Z" fill="#FFC117"/>
</svg>
