<svg width="24" height="24" viewBox="0 0 24 24" fill="none" xmlns="http://www.w3.org/2000/svg">
<circle cx="17" cy="9" r="3" fill="#262626"/>
<circle cx="7" cy="9" r="3" fill="#262626"/>
<path fill-rule="evenodd" clip-rule="evenodd" d="M17.5693 18H19.8959C20.4875 18 20.9412 17.4901 20.7974 16.9162C20.4292 15.4458 19.4488 13 17.0009 13C16.1148 13 15.421 13.3205 14.8789 13.7991C16.3866 14.7773 17.1662 16.4902 17.5693 18Z" fill="#262626"/>
<path fill-rule="evenodd" clip-rule="evenodd" d="M9.12112 13.7991C8.57903 13.3205 7.88523 13 6.99915 13C4.55123 13 3.57081 15.4458 3.20258 16.9162C3.05886 17.4901 3.5125 18 4.10412 18H6.4307C6.83378 16.4902 7.61337 14.7773 9.12112 13.7991Z" fill="#262626"/>
<circle cx="12" cy="9" r="4" fill="#FFC117"/>
<path d="M12 14C15.7087 14 16.6665 17.301 16.9139 19.0061C16.9932 19.5526 16.5523 20 16 20H8C7.44772 20 7.00684 19.5526 7.08614 19.0061C7.33351 17.301 8.29134 14 12 14Z" fill="#FFC117"/>
</svg>
